<?xml version="1.0" encoding="utf-8"?>

<!DOCTYPE svg PUBLIC "-//W3C//DTD SVG 1.1//EN" "http://www.w3.org/Graphics/SVG/1.1/DTD/svg11.dtd">
<svg version="1.1" id="Layer_1" xmlns="http://www.w3.org/2000/svg" xmlns:xlink="http://www.w3.org/1999/xlink" x="0px" y="0px"
	 viewBox="0 0 1094 1678" enable-background="new 0 0 1094 1678" xml:space="preserve">
<g>
	<path d="M552.696,57.819c-1.256-11.247-7.279-20.361-18.792-18.6c-2.972,0.454-4.912-0.097-2.137,7.693
		C536.766,60.938,548.858,57.75,552.696,57.819z"/>
	<path d="M497.461,64.183c0.17,0.871,0.524,2.931,0.719,3.366c0.358,1.497,1.914,2.017,1.1,3.623
		c0.68-0.298-1.819,2.695,1.101-0.428c2.376,7.185,6.746,9.192,11.821,13.03c7.293,5.516,18.045-35.98-7.709-41.362
		c-3.86-0.807-8.272,15.428-7.035,21.756C497.527,64.522,497.533,64.552,497.461,64.183z"/>
	<path d="M497.461,64.183c-0.001-0.005-0.002-0.011-0.003-0.015C497.35,63.615,497.36,63.667,497.461,64.183z"/>
	<path d="M583.742,70.223c0.249,3.756,7.058,11.844,11.105,11.405c3.373-0.366,4.004-9.804,3.503-12.813
		c-0.83-4.989-5.714-12.467-11.772-11.759c0.19-1.075-1.146,0.756-1.107,0.69c-0.373,0.645,0.1,1.525-0.071,2.463
		C584.794,63.529,583.882,66.876,583.742,70.223z"/>
	<path d="M486.764,129.31c3.191,0.026,6.693-22.853,1.791-37.85c-1.675-5.124-4.7-8.908-7.896-13.17
		c-0.042,0.46-0.083,0.921-0.125,1.381c0.244-2.696-18.785-17.228-19.846-8.966C459.249,72.434,446.186,107.64,486.764,129.31z"/>
	<path d="M563.859,78.045c-1.151-0.409-3.454-0.745-4.435,0.224c-1.149,1.134,1.968,18.563,10.399,18.563
		c1.525,0,10.976,3.707,7.539-7.26c-1.82-5.81-7.41-10.279-13.371-11.15C563.948,78.297,563.904,78.171,563.859,78.045z"/>
	<path d="M379.528,93.727c0.43,2.567,1.667,5.502,4.399,8.947c1.182,1.492,4.93,1.309,5.42,3.424
		c1.236-0.125,3.996,1.454,4.546,0.716c2.817-3.784,0.848-12.111-0.793-15.967c-1.531-2.718-5.617-3.867-6.624-5.504
		c-0.683-1.106-4.767-0.754-5.81-0.882C379.982,87.055,378.904,90.002,379.528,93.727C379.528,93.726,379.528,93.726,379.528,93.727
		z"/>
	<path d="M379.525,93.715c0.001,0.005,0.002,0.007,0.003,0.012c0,0,0,0,0,0c-0.015-0.062-0.033-0.136-0.052-0.219
		C379.482,93.535,379.497,93.596,379.525,93.715z"/>
	<path d="M593.215,84.184c-10.569-0.439-15.456,7.83-12.785,13.99C592.481,99.267,596.161,84.306,593.215,84.184z"/>
	<path d="M355.775,112.577c0.301,5.892,5.917,1.241,5.432,0.837c5.215-0.569,10.803-10.675,10.009-15.51
		c2.506-4.207-2.248-10.947-3.833-14.729c-1.615-3.853-7.419,5.301-9.267,6.222c-4.018,2.002-5.473,9.59-6.216,13.866
		c0.535,0.662,1.108,4.675,1.737,5.644C353.769,109.11,355.941,112.577,355.775,112.577z"/>
	<path d="M576.801,99.588C577.111,99.186,576.721,99.573,576.801,99.588L576.801,99.588z"/>
	<path d="M576.801,99.588c-3.655-0.655-13.981,7.5-9.241,15.157c3.458-0.344,7.965-1.334,9.658-5.02
		C581.1,105.861,579.908,95.56,576.801,99.588z"/>
	<path d="M308.026,105.451c7.602,8.334,14.023,18.969,26.873,18.72c0,0.216-0.018,0.512-0.004,0.725
		c1.514-0.213,4.507-0.035,5.684-0.824c1.305-0.874,12.314-5.6,12.387-8.219c0.06-2.162-12.265-18.914-24.545-18.428
		c-2.747-0.478-11.15,0.605-12.987,2.835c-1.129,0.137-6.266,1.666-6.733,2.706C308.713,102.941,306.166,105.451,308.026,105.451z"
		/>
	<path d="M668.987,136.449c4.923,0,13.694-4.175,15.619-8.719c5.891-4.742,3.97-15.955,3.648-18.734
		c1.031-2.767-3.084-0.829-4.163-0.402c0.054-0.059-6.632,2.037-10.706,5.368c-2.368,0.81-6.903,8.711-7.195,11.17
		C666.007,126.675,665.944,136.449,668.987,136.449z"/>
	<path d="M755.163,136.684c0.654-0.017,6.065-6.108,5.886-17.956c-0.575-2.575-7.451-12.846-10.752-8.973
		c-4.144,4.861-6.77,10.015-5.803,17.287C746.004,128.957,752.109,144.125,755.163,136.684z"/>
	<path d="M274.713,155.16c0.417-0.133,1.984-2.954,2.929-2.954c4.019,0,5.171-14.508,2.049-14.319
		c0.627-2.629-1.538-3.01-2.11-4.179c-0.47-0.505,0.625-1.913-0.814-1.913c-0.959,0-3.26,1.287-3.06,2.415
		c-1.013-0.182-9.263,6.593-2.91,18.742C272.386,153.003,271.932,156.043,274.713,155.16z"/>
	<path d="M314.629,154.501c1.091,0,2-0.288,3.044,0.035c-0.167,0.217-0.344,0.438-0.503,0.662c2.793-1.01,10.832,1.179-0.187-10.061
		c-4.425-4.514-12.311-3.133-12.987-2.167c-0.61,0.871,0.631,2.638,0.7,3.495C306.188,146.877,310.523,154.501,314.629,154.501z"/>
	<path d="M572.221,174.922c0.249,0.515,2.52,5.465,3.657,5.465c1.996,0,11.557-9.999,11.029-18.292
		c-0.178-2.796-5.654-15.643-8.523-11.196C575.91,150.803,564.556,161.222,572.221,174.922z"/>
	<path d="M578.385,150.899C578.83,150.21,578.292,150.896,578.385,150.899L578.385,150.899z"/>
	<path d="M841.525,153.404c-0.07-0.028-0.132-0.058-0.19-0.09c0.541-1.048,0.93-2.143,1.152-3.279
		c0.192-0.23,0.349-0.437,0.431-0.606c-0.744-0.685,0.39-3.132-0.477-3.639c-0.059-0.139-0.13-0.267-0.211-0.384
		c0.145-0.424,0.38-0.53,0.709-0.31c-0.385-2.007-3.22-14.581-6.872-13.383c-2.809,1.213-5.483,2.508-7.98,4.291
		c-0.895,1.874-19.581,10.87-7.138,36.785C822.449,173.071,839.112,162.047,841.525,153.404z"/>
	<path d="M254.824,155.499c0,0,0,0.001,0.001,0.002c0.696,2.001,4.77,4.565,6.609,4.665c-0.039,0.251-0.075,0.502-0.108,0.754
		c1.933,0.033,3.866,0.036,5.799,0c0.144-0.055,0.976-1.687,1.991-1.507c4.854,0.869,1.074-7.491-2.429-7.116
		c0.503-1.202-2.673-0.714-3.451-0.739C262.67,151.702,253.775,152.467,254.824,155.499
		C254.811,155.46,254.805,155.443,254.824,155.499z"/>
	<path d="M254.845,155.559c-0.007-0.02-0.015-0.042-0.02-0.058c0,0,0,0,0,0C254.836,155.532,254.837,155.536,254.845,155.559z"/>
	<path d="M254.87,155.63C254.894,155.701,254.888,155.684,254.87,155.63L254.87,155.63z"/>
	<path d="M254.845,155.559c0.009,0.027,0.017,0.048,0.025,0.072C254.864,155.614,254.855,155.587,254.845,155.559z"/>
	<path d="M543.646,155.143c-0.788-3.663-4.41-8.423-11.178-8.423c-5.284,0,0.617,17.342,11.922,13.482
		C544.37,158.891,545.05,156.054,543.646,155.143z"/>
	<path d="M543.646,155.143C544.603,155.764,543.343,153.733,543.646,155.143L543.646,155.143z"/>
	<path d="M859.565,166.23c1.119,1.495,5.994,6.584,7.879,6.584c2.662,0,4.233-10.987,4.267-12.82
		c0.015-0.796-1.217-5.282-0.994-5.603c-2.718,1.256-5.42,2.944-7.934,4.565c2.247-1.449-4.311,2.338-5.439,3.655
		C858.666,163.146,858.645,165.001,859.565,166.23z"/>
	<path d="M273.723,158.724c0.469,1.921,4.053,5.83,6.225,5.83c0.286,0,0.146,0.44,0.146,0.672c0.147,0.059,2.105,0.057,2.35,0.057
		c11.219,0,7.324-6.379,5.128-7.156C287.365,154.978,272.803,154.947,273.723,158.724z"/>
	<path d="M547.004,168.773c0.779,2.636,4.479,5.33,7.134,5.636c11.205,1.294,3.15-13.175-5.855-13.175
		C543.183,161.234,544.854,164.487,547.004,168.773z"/>
	<path d="M774.844,192.361c13.226-13.03,23.361-23.962,23.047-42.096c-0.106-6.139-3.018-13.553-4.166-14.862
		c-5.575-6.359-2.832-11.286-12.179-2.157c-6.521,4.148-16.524,17.126-16.161,38.482
		C765.528,172.087,770.606,196.535,774.844,192.361z"/>
	<path d="M898.315,191.957c1.212,0,1.514-1.277,2.17-2.132c14.62-19.045,2.162-27.333-0.209-29.848
		c-3.101-3.271-3.828-1.598-6.185,1.058c-6.538,7.367-7.818,18.383,1.417,28.051C895.533,190.021,897.362,191.957,898.315,191.957z"
		/>
	<path d="M415.824,193.351c1.515,0,7.238-4.31,7.322-6.117c4.534-3.328,3.002-14.736,1.66-14.736c-0.858,0-2.838-8.983-4.489-9.414
		c-3.446-0.9-9.279,10.053-10.037,10.818C407.111,184.179,414.612,193.351,415.824,193.351z"/>
	<path d="M524.164,176.038c-0.551,2.171-1.883,4.299,1.405,4.364c15.553,0.308,19.735-13.441,17.368-16.926
		C541.344,161.131,528.076,160.633,524.164,176.038z"/>
	<path d="M701.567,179.993C702.814,181.297,701.576,179.856,701.567,179.993L701.567,179.993z"/>
	<path d="M685.299,195.762c-1.14,7.414-0.483,7.218,3.652,5.268c4.295-2.025,9.149-4.114,11.378-8.804
		c1.487-3.127,4.745-8.565,1.238-12.233C701.589,179.633,687.423,181.952,685.299,195.762z"/>
	<path d="M197.957,217.848c1.446,0.565,6.444-1.292,6.377-2.908c4.522,0.45,10.346-13.31,9.622-13.272
		c2.951-0.155-4.558-24.488-6.703-25.261c-2.031-0.732-21.638,13.985-14.845,30.331C192.66,210.501,195.761,214.822,197.957,217.848
		z"/>
	<path d="M908.582,188.926C908.642,188.642,907.395,189.449,908.582,188.926L908.582,188.926z"/>
	<path d="M903.525,193.455c-1.716,3.202,11.878,12.735,16.318,14.39c13.073,4.874,30.069-6.071,29.743-9.406
		c-0.298-3.047-18.766-18.51-33.571-14.163c-1.901,0.561-6.947,2.355-7.433,4.649C907.609,189.355,903.757,192.325,903.525,193.455z
		"/>
	<path d="M248.118,201.928c-0.46,1.055,2.057,2.529,2.898,2.153c-0.321,1.904,3.728,2.801,4.107-0.116
		c0.945-7.267-4.156-13.454-5.766-12.662c0.411-1.648-4.157-2.12-4.517-2.12c-3.148,0-0.771,8.509-0.015,9.913
		C245.987,199.356,246.694,202.599,248.118,201.928z"/>
	<path d="M895.143,229.953c1.06,0.648,5.244-4.417,5.488-5.918c3.005-2.051,4.909-7.072,5.327-10.676
		c0.079-0.193,0.146-0.392,0.19-0.598c1.693-2.726-0.905-11.594-4.869-14.01c-0.209-0.896-3.195-3.66-3.958-2.897
		c-8.152,6.623-10.454,14.29-9.949,18.31C887.869,220.532,892.93,228.602,895.143,229.953z"/>
	<path d="M166.941,218.046c-0.002-0.003-0.005-0.006-0.007-0.01h0C166.939,218.043,166.938,218.041,166.941,218.046z"/>
	<path d="M166.935,218.037c6.985,9.938,17.668,10.04,20.284,8.685c1.08,0.204,1.558-0.887,2.159-0.887
		c2.166,0,4.521-2.981,6.162-2.904c1.297,0.06-1.915-5.742-2.394-6.391c-5.899-8.009-20.032-6.196-20.531-4.43
		c-0.175-0.034-3.447,0.997-3.588,1.408c-0.102-0.005-1.652,0.734-1.732,0.788c-3.531-1.043-0.667,3.295-0.362,3.729
		C166.934,218.035,166.934,218.036,166.935,218.037z"/>
	<path d="M166.934,218.036c0,0-0.001-0.002-0.001-0.002c-0.037-0.052-0.089-0.126-0.119-0.169
		C166.834,217.893,166.866,217.939,166.934,218.036z"/>
	<path d="M202.274,221.486c-3.149,0.313-3.814,1.079-2.054,4.354c1.377,2.563,4.455,7.226,7.453,7.954
		c-1.129,2.184,15.326,3.917,15.413,1.416c1.361,0.275,4.497-1.041,5.293-2.149c1.157-1.611-3.899-11.564-7.81-11.566
		c0.515-1.137-3.438-1.08-3.537-2.181C208.255,219.198,201.805,220.327,202.274,221.486z"/>
	<path d="M161.82,240.141c-1.349,0,13.29,13.261,13.368,4.131c0.03-3.471,0.189-7.06-2.085-9.985
		c-0.812-1.044-6.533-4.589-6.567-5.036c-0.08-1.067-4.649-1.767-5.502-0.655C160.261,230.162,158.229,240.141,161.82,240.141z"/>
	<path d="M378.727,240.059c-0.846,1.8-0.388,2.412-0.712,4.243c4.694,11.138,12.59,0.209,2.966-6.381
		C380.826,236.407,378.752,240.007,378.727,240.059z"/>
	<path d="M543.673,250.334c0.324-0.75,1.697-2.568,0.381-3.207c0.443-1.918-2.326-4.463-3.555-5.548
		c-4.677-2.572-4.894-0.881-4.797,3.975C535.785,249.693,541.646,255.027,543.673,250.334z"/>
	<path d="M544.054,247.127C544.405,247.298,544.204,246.476,544.054,247.127L544.054,247.127z"/>
	<path d="M384.951,248.838C384.951,248.839,384.951,248.839,384.951,248.838c-0.001,0.001-0.001,0.001-0.001,0.001
		c-0.032,0.042-0.094,0.125-0.12,0.16c0.017-0.022,0.053-0.071,0.12-0.16c-3.272,4.364,8.777,5.372,8.737,4.555
		c-0.086-1.724,11.72-4.701,5.283-8.099C394.023,241.629,388.547,244.043,384.951,248.838
		C384.979,248.801,384.971,248.812,384.951,248.838z"/>
	<path d="M386.092,254.858C386.092,254.858,386.092,254.858,386.092,254.858C386.107,254.891,386.113,254.904,386.092,254.858z"/>
	<path d="M386.093,254.858c-0.018-0.041-0.051-0.114-0.077-0.172c0.026,0.059,0.054,0.12,0.076,0.169
		c-4.186-9.382-6.709,1.502-5.764,4.119c0.124,2.615,5.794,9.228,6.826-2.915C386.409,256.416,386.526,255.83,386.093,254.858z"/>
	<path d="M524.308,261.853c1.898,3.232,17.874,2.039,17.147-7.854C534.117,247.466,522.326,258.484,524.308,261.853z"/>
	<path d="M705.565,243.647c-6.114-8.611-6.123-6.308-10.561-0.779c-12.629,15.734-11.673,26.367-2.858,41.931
		c2.198,3.882,3.663,1.285,8.248-5.201c11.631-16.454,8.099-22.407,9.119-24.939C707.78,252.405,707.705,246.663,705.565,243.647z"
		/>
	<path d="M292.018,272.685c-0.05,0.008,0.291-0.686,0.636-0.753c2.182,0.257,9.399-2.839,10.129-2.931
		c0.231-0.115,1.927-1.501,2.515-1.909c3.127-2.168,6.046-3.013,8.549-6.024c-0.109,0.103,5.552-3.517,2.562-3.517
		c-1.11,0-3.642-2.585-5.155-3.011c-0.209-1.524-11.807-5.011-12.446-5.248c-7.28-3.767-27.131,7.429-26.569,9.751
		c-0.286-1.179-1.534,0.305,0,0v0c-1.062,0.211-6.026,4.975-2.783,4.975C269.857,264.017,279.286,274.803,292.018,272.685z"/>
	<path d="M407.73,264.775C406.995,264.696,407.972,264.918,407.73,264.775L407.73,264.775z"/>
	<path d="M407.73,264.775c0.418,0.248,8.24,4.437,8.316,1.97c0.017-0.565,3.727-1.596,4.239-2.778c1.48-0.033,4.273-3.536,4.08-4.92
		c-0.376-2.676-10.05-4.458-10.456-2.183C411.092,256.789,404.492,264.43,407.73,264.775z"/>
	<path d="M168.661,281.351c0.98-4.741,1.109-9.214-0.606-13.798c-1.836-4.906-12.099-10.117-14.436-10.117
		c-3.575,0-2.965,8.557-2.682,10.777C151.809,275.069,162.857,281.24,168.661,281.351z"/>
	<path d="M150.938,268.227c0-0.003-0.001-0.007-0.002-0.014C150.639,265.882,150.924,268.12,150.938,268.227z"/>
	<path d="M792.479,271.506C792.017,271.307,792.403,273.152,792.479,271.506L792.479,271.506z"/>
	<path d="M797.959,277.823c8.648-2.366,15.401-15.802,7.58-27.626c-0.804-1.163-10.13,7.054-10.519,8.828
		c-2.866,0.147-4.993,11.42-2.542,12.481C792.363,273.998,795.313,278.547,797.959,277.823z"/>
	<path d="M840.031,273.04c-1.396-3.719-14.084,2.758-15.016,9.515c-1.991,14.426,12.308,5.517,14.858-2.687
		c-0.001,0.003,0-0.001,0,0c0,0,0-0.001,0-0.001c0,0,0,0,0,0c0.001-0.003,0.001-0.002,0.001-0.005
		c0.001-0.003-0.001,0.002-0.001,0.004C840.511,277.808,839.984,275.198,840.031,273.04z"/>
	<path d="M228.989,281.709c-1.939,0.934-1.387,4.788,0.712,4.577c-0.049,0.635,0.173,1.903,1.1,1.463
		c-0.103,2.522,3.821,1.947,4.238,3.665c1.357-0.376,1.664,0.866,2.879,0.754c9.455,0,10.956-0.684,10.956-0.684
		c5.861,0.134-2.942-9.713-5.616-9.398C243.964,280.557,233.054,279.749,228.989,281.709z"/>
	<path d="M400.988,289.872c1.669,0.175,2.522,1.681,4.072,1.573c1.94-0.141,3.598,1.048,5.777,0.41
		c1.406-0.411,5.006-1.859,5.52-3.353c2.981-0.669,4.227-5.157,5.588-7.173c1.463-2.169,3.778-6.246-0.913-5.741
		c-8.214-2.173-14.739-0.987-20.26,12.274C399.887,287.873,400.871,289.722,400.988,289.872z"/>
	<path d="M400.773,287.863C400.933,287.478,400.647,287.864,400.773,287.863L400.773,287.863z"/>
	<path d="M864.76,286.831C864.889,286.624,864.697,286.772,864.76,286.831L864.76,286.831z"/>
	<path d="M865.32,288.392c12.328,10.208,25.916,0.326,25.812-2.791c0.827-0.238,3.036-2.666,2.916-3.495
		c-2.98-3.052-17.977-7.211-17.996-5.291c-0.006,0.663-5.127,1.897-5.758,2.368c-2.367,1.765-3.895,5.004-5.534,7.648
		C864.276,286.388,864.973,288.104,865.32,288.392z"/>
	<path d="M140.996,311.636c-0.375,3.45,12.781,12.032,13.028,12.899c0.35,0.198,2.478,0.835,2.855,0.835
		c0.804,0,2.489,2.146,3.529,2.146c3.089,0,5.868,2.187,9.092,2.187c0.921,0,2.746,0.412,3.959,0.593
		c0.142,1.851,3.302,0.404,4.355,0.693c5.189,0.385,7.75,4.872,2.35-11.371c0.848-3.872-8.585-19.209-19.407-23.022
		c-1.475-0.52-3.275-2.286-5.454-2.26c-0.081-1.409-17.55-4.381-19.042-2.183c-0.256,3.735,0.263,7.458,0.728,11.155
		C137.936,304.724,138.857,311.465,140.996,311.636z"/>
	<path d="M902.729,302.583c-3.143-0.303-6.164,5.416-7.195,7.592c-2.341,2.371,0.105,8.499,1.651,11.033
		C899.678,325.294,913.09,311.128,902.729,302.583z"/>
	<path d="M103.078,324.532c-0.001,0.101-0.002,0.164-0.003,0.204c0.001-0.049,0.002-0.126,0.003-0.203
		c-0.092,7.499,7.655,16.699,12.699,16.572c-0.314,0.747,6.749,2.091,7.856,2.262c3.045-0.024,6.09,0.021,9.135-0.015
		c1.609-0.019,2.641-1.23,4.232-0.713c0.301-9.615-9.822-20.491-12.261-20.188c-1.383-0.462-2.202-1.356-3.27-2.051
		c-2.848-1.856-7.817-0.668-10.814-0.668c-0.869,0-4.157-1.095-4.27,0.566C102.599,320.008,103.12,321.183,103.078,324.532z"/>
	<path d="M915.361,337.191c2.052,0,4.084-0.353,6.136-0.353c0.05-0.016,0.59-0.74,1.253-0.74c10.467,0-2.258-11.904-5.541-13.733
		c-8.43-4.698-12.349,0.832-14.939,0.832C897.923,323.198,906.406,337.191,915.361,337.191z"/>
	<path d="M264.282,324.575c-0.287-0.759-8.264-4.44-4.329,10.827c2.302,8.932,12.084,16.776,14.188,15.744
		c5.357,3.76,11.085,4.579,17.493,5.918c0.947-22.988-17.403-29.248-17.691-29.867c-0.009-0.02-0.023-0.049-0.031-0.067
		c0.005,0.012,0.014,0.03,0.03,0.066C273.207,325.595,265.747,324.458,264.282,324.575z"/>
	<path d="M868.581,340.035c1.153,6.274,4.047,1.506,6.039-0.43c-0.437,0.424,7.513-5.279,3.217-15.082
		C874.542,317.006,862.409,327.878,868.581,340.035z"/>
	<path d="M897.961,324.932c-2.798-2.722-15.101,10.494-7.274,18.874c-0.135-0.144,0.095,0.102,0.002,0.002
		C891.818,345.012,906.747,333.48,897.961,324.932z"/>
	<path d="M90.322,354.326c0.004,0.025,0.007,0.044,0.009,0.058c-0.002-0.01-0.003-0.019-0.006-0.038
		c1.147,7.124,6.913,8.3,8.817,10.852c5.393,7.236,6.512-6.864,6.477-9.6c-0.901-6.217-10.014-12.995-12.274-11.558
		c-2.423,2.264-3.526,7.165-3.02,10.306C90.324,354.338,90.323,354.333,90.322,354.326z"/>
	<path d="M854.454,340.597c3.437-5.522-4.948-18.286-7.252-13.465c-8.009,2.983-12.072,16.72-3.772,26.026
		c0.001,0.001,0.001,0.001,0.001,0.002C845.487,355.46,853.715,341.784,854.454,340.597z"/>
	<path d="M843.43,353.16C843.43,353.159,843.43,353.159,843.43,353.16C843.476,353.211,843.456,353.189,843.43,353.16z"/>
	<path d="M843.43,353.159C843.429,353.158,843.429,353.158,843.43,353.159c-0.003-0.003-0.003-0.004-0.005-0.006
		C843.428,353.157,843.425,353.154,843.43,353.159z"/>
	<path d="M569.595,351.241c-2.679-1.742-18.137,4.759-12.968,14.463C569.929,365.398,571.217,352.297,569.595,351.241z"/>
	<path d="M945.32,378.094c-3.001-1.504-8.779-2.178-11.188,0.943c-2.754,0.812-7.678,8.279-1.754,8.279
		c1.159,0,2.729,1.08,3.858,1.482c3.619,3.931,15.635-4.305,15.188-7.365C951.136,379.501,944.187,377.526,945.32,378.094z"/>
	<path d="M811.603,379.05c-6.96,11.521,0.725,24.226,3.833,23.386c3.145-4.901,6.01-9.53,6.226-15.473
		c-0.511-7.82-4.947-12.286-6.307-12.286C814.255,374.678,812.006,378.382,811.603,379.05z"/>
	<path d="M790.942,361.599c-0.836-1.538-2.666-3.144-3.732-4.615c-4.074-5.623-9.706,6.516-9.51,8.077
		c-5.12,10.683-2.065,20.457,5.291,29.713c2.044,2.568,6.813-9.39,6.738-9.029C790.612,381.624,797.761,374.137,790.942,361.599z"/>
	<path d="M789.73,385.744c0,0,0,0.001-0.001,0.001C789.517,386.747,789.716,385.81,789.73,385.744z"/>
	<path d="M91.955,388.399c-0.407-2.976-0.75-5.634-3.181-7.584c-2.724-3.916-13.975-12.822-16.638-5.712
		c-0.709,3.993-1.349,8.52,0.801,11.906c1.781,2.805,6.305,8.494,10.233,8.494c1.334,0,9.633,6.248,8.763-0.214
		C93.39,394.082,91.532,390.092,91.955,388.399z"/>
	<path d="M206.084,392.417c-1.498-0.091-1.203-1.694-2.986-1.694c-1.676,0-13.087-4.185-12.825,0.628
		c0.196,3.588,2.298,9.287,5.54,11.329c9.067,5.712,24.831,8.928,12.005-9.506c-0.242-0.346-0.079-0.113-0.003-0.004
		C207.165,392.242,206.933,392.863,206.084,392.417z"/>
	<path d="M579.362,403.214c-12.973-16.812-23.441-5.203-22.517-3.856c4.19,6.635,7.441,7.796,14.59,8.542
		C572.542,406.076,579.185,406.939,579.362,403.214z"/>
	<path d="M88.096,401.755c-1.559-0.051-2.726-1.268-4.118-0.746c-5.429,0-11.529,0.239-15.782,4.084
		c-7.694,6.955-12.623,22.303-10.911,25.423c1.477,2.691,16.536,0.565,18.731-2.489c1.946-0.232,3.772-3.298,4.991-3.25
		C89.722,415.791,90.158,401.824,88.096,401.755z"/>
	<path d="M962.499,412.455c1.834-2.396,3.373-4.154,4.096-7.063c0.757-0.567,1.451-6.947-0.026-7.245
		c-0.827-2.861-1.909-4.996-4.354-6.866c-2.529-0.59-3.312,3.253-5.317,3.292c-5.392,5.279-5.898,10.834-4.007,17.961
		C954.598,414.662,954.506,422.899,962.499,412.455z"/>
	<path d="M629.063,478.934c-0.03,0.038-0.061,0.078-0.071,0.092C628.993,479.024,629.064,478.932,629.063,478.934z"/>
	<path d="M737.208,218.955C735.619,219.761,737.325,218.964,737.208,218.955L737.208,218.955z"/>
	<path d="M617.216,192.6C616.441,194.438,617.451,192.298,617.216,192.6L617.216,192.6z"/>
	<path d="M349.337,301.945C349.643,303.457,350.898,301.026,349.337,301.945L349.337,301.945z"/>
	<path d="M701.249,114.718C702.423,114.825,700.985,114.047,701.249,114.718L701.249,114.718z"/>
	<path d="M114.246,424.112c-0.042-1.73,0.54-3.465,0.177-5.179c-0.572-0.759,0.53-1.973-0.054-2.665
		c-0.613-0.73-2.661-10.875-5.625-10.12c-0.923-1.604-3.845-3.762-5.343-3.597c-1.379-0.205-9.531-6.294-10.96,0.8
		c-0.759,3.769-0.25,7.963,2.019,10.99c0.076,1.604,6.474,7.357,10.142,7.571C104.157,422.982,112.608,424.077,114.246,424.112z"/>
	<path d="M944.054,440.878c2.552,10.206,6.863,1.157,11.365-1.951c2.566-3.106,5.13-7.646,3.443-11.836
		c-1.458-1.819-1.817-4.879-3.533-6.915C953.554,419.689,940.266,425.73,944.054,440.878z"/>
	<path d="M180.295,427.017c-1.06,1.522-4.377,0.631-5.048,2.338c-0.09,0.006-0.076,0.641-0.037,0.589
		c0.474,3.551,6.87,8.903,9.848,8.544c2.796-0.337,12.085,0.224,8.615-5.382c-2.617-4.228-4.474-5.332-3.835-4.016
		C189.267,427.905,185.109,425.918,180.295,427.017z"/>
	<path d="M191.871,430.371C192.489,431.042,192.319,430.839,191.871,430.371L191.871,430.371z"/>
	<path d="M976.265,436.378c6.634,1.644,22.367-1.524,16.885-5.692c-3.008-8.03-16.089-22.668-32.335-11.937
		C955.962,421.954,969.081,436.875,976.265,436.378z"/>
	<path d="M993.149,430.686C993.862,431.228,992.42,428.74,993.149,430.686L993.149,430.686z"/>
	<path d="M703.036,431.281c-1.747-2.077-2.746,0.457-3.917,1.843c-2.566,3.037-5.413,5.559-6.46,9.649
		c-1.1,4.302-2.011,8.967-0.157,13.385c1.194,2.841,4.224,10.387,7.334,11.56c2.194,0.19,11.752-13.461,11.478-19.774
		c0.005,0.116,0.008,0.18,0.011,0.249c-0.011-0.244-0.025-0.569-0.013-0.29C710.889,438.575,706.556,432.839,703.036,431.281z"/>
	<path d="M711.326,448.193c0,0.006,0.001,0.011,0.001,0.016C711.326,448.205,711.326,448.198,711.326,448.193z"/>
	<path d="M711.326,448.21C711.34,448.51,711.335,448.404,711.326,448.21L711.326,448.21z"/>
	<path d="M843.423,450.043c0.429,0.129,1.395-7.068-5.203-10.816c-2.342,0.021-3.949,4.788-4.675,5.81
		c-1.362,3.807,0.278,7.478,2.093,10.601C840.044,463.222,842.279,449.698,843.423,450.043z"/>
	<path d="M930.151,435.658c-0.021-1.557-5.038-2.553-6.309-2.573c-3.665-0.059-6.316-1.214-6.349,2.967
		c-0.054,6.883,0.761,12.941,6.493,17.247c1.35,4.106,13.711,6.318,14.784,5.358c0.148-2.743-0.007-5.49,0.043-8.235
		C938.251,449.217,935.796,436.273,930.151,435.658z"/>
	<path d="M885.215,453.059c-0.001,0-0.002-0.001-0.003-0.001C884.52,452.832,884.944,452.971,885.215,453.059z"/>
	<path d="M889.418,452.384c0.868-2.038,1.233-5.175,1.095-7.351c2.226-16-4.284-23.414-16.185-27.012
		c-5.011-9.116-17.712,25.718,11.041,35.089c-0.028-0.009-0.085-0.028-0.155-0.05C887.43,453.781,888.446,454.665,889.418,452.384z"
		/>
	<path d="M760.788,448.513c-6.9-10.075-13.248-11.905-15.156-11.379c-0.533,0.251-19.758,25.516,9.092,43.222
		c5.111,3.137,9.107-16.663,8.486-25.974C762.013,453.685,761.774,449.951,760.788,448.513z"/>
	<path d="M284.8,483.215c0.275-0.361,1.501-13.456-8.756-22.582c-1.454-0.977-3.896-2.026-4.614-3.173
		c-0.713-1.139-8.65-3.132-9.677-2.357c-1.096,0.827-1.632,9.238,1.062,14.29c0.815,1.529,4.692,7.957,6.569,7.279
		c-0.123,1.266,6.935,5.134,8.221,5.079c1.808,0.597,2.741,0.923,4.346,1.492C282.088,484.531,284.683,484.518,284.8,483.215z"/>
	<path d="M864.79,459.556c-0.13-1.29-4.071-4.007-5.388-3.992c0.47-1.806-11.708-5.586-17.607,3.233
		c-2.015,0.442,2.686,4.556,3.608,4.97C851.646,473.472,873.779,462.406,864.79,459.556z"/>
	<path d="M864.79,459.556C865.399,459.749,864.72,458.866,864.79,459.556L864.79,459.556z"/>
	<path d="M148.189,452.277c-1.623,2.75-8.689,9.798-1.805,10.05c0.816,0.03-0.091,0.406,0.313,0.715
		c0.854,0.653,5.186,0.028,6.251,0.02c5.691-0.046,4.969-0.574,7.983-3.242C177.292,445.338,156.135,442.059,148.189,452.277z"/>
	<path d="M836.004,478.259c0.497,3.116,3.18-1.467,3.583-1.939c1.675-0.233,2.08-5.018,3.11-4.986
		c0.933,0.029,0.306-5.072,0.205-5.764c-2.055-2.949-4.1-7.14-7.725-2.654C831.624,467.312,831.248,472.184,836.004,478.259z"/>
	<path d="M794.618,470.481c0.008,0.03,0.043,0.151,0.121,0.427C794.792,471.093,794.635,470.541,794.618,470.481z"/>
	<path d="M783.439,461.224c-2.5,0.863-6.772,13.182-3.326,18.438c0.104,4.542,9.291,11.481,9.742,11.523
		c2.721,0.798,7.166-12.261,4.884-20.276C793.567,466.78,788.186,461.088,783.439,461.224z"/>
	<path d="M218.427,485.695c1.132-1.576-1.757-11.222-3.631-11.028c0.073-5.712-15.104-6.537-15.465-6.593
		c0.113,0.361-2.304,4.691,1.776,11.878C204.005,485.057,216.015,487.475,218.427,485.695z"/>
	<path d="M177.736,479.649c-1.721,6.764,3.513,12.633,9.73,12.968c1.576,0.084,3.941,0.516,5.772,0.716
		c0.602-9.723-6.444-13.531-7.207-12.919c0.361-1.358-1.616-0.676-2.257-0.759c0.027-0.202,0.098-0.558,0.105-0.758
		C182.174,478.86,178.209,478.073,177.736,479.649z"/>
	<path d="M147.771,480.34c-0.131,1.315-1.306,8.654,1.583,8.654c0.824,0,3.098,2.495,4.092,3.019
		c1.528,0.805,2.558-0.083,2.982,1.329c1.271-0.099,4.879,0.821,5.756-0.445c1.23-1.777-2.17-7.308-2.922-8.906
		c-1.408-1.55-3.399-2.888-5.719-2.937c0.012-0.212,0.042-0.508,0.04-0.718C151.645,480.296,149.707,480.297,147.771,480.34z"/>
	<path d="M902.043,504.868c-0.016-1.424,0.494-11.263-3.966-14.986c-1.137-0.948-10.901-6.01-11.218-3.254
		c-0.525,4.557-1.033,9.646,2.863,13.412C892.928,503.139,897.368,504.806,902.043,504.868z"/>
	<path d="M174.708,496.286c-0.704-0.534-2.015-2.289-2.576-2.289c-1.142,0-1.321,0.321-1.629-0.671
		c-1.174-0.041-5.945-0.721-6.798,0.031c-0.993,1.945-0.667,5.127,1.023,6.494c3.265,5.865,8.169,4.929,14.094,5.025
		C178.901,502.83,177.328,496.184,174.708,496.286z"/>
	<path d="M250.263,486.134c-1.548,1.242-1.342,8.811,0.652,9.391c0.345,3.004,5.813,8.636,9.213,8.636
		c2.769,0,6.129,5.711,5.828-1.51c-0.144-3.443-0.746-6.512-2.714-9.429C261.479,490.613,252.308,484.492,250.263,486.134z"/>
	<path d="M340.133,526.055c3.538,1.219,5.579,5.531,7.743,0.514c2.595-6.02,2.975-13.282,1.059-19.545
		c-1.316-1.763-2.044-5.404-4.34-7.159c-1.512-3.611-12.341-9.091-14.298-8.673c-0.987,0.54-9.128,11.797-2.162,23.403
		c2.408,4.012,5.807,7.708,10.086,9.637C337.906,525.393,339.38,525.796,340.133,526.055z"/>
	<path d="M379.79,521.194c1.875-1.211,0.5-7.878,0.547-9.839c-2.629-2.747-0.991-7.437-7.582-12.19
		c-1.802-1.299-14.308-5.839-14.457-2.95c-3.053,2.493-1.289,15.492,6.84,20.227C371.155,519.946,378.649,521.932,379.79,521.194z"
		/>
	<path d="M152.152,516.371c-0.038-0.245-0.077-0.49-0.115-0.736c3.263,0.138,12.706-5.658,9.116-20.158
		c-7.553,0.371-12.714,3.452-14.096,11.529C144.536,521.738,149.511,516.357,152.152,516.371z"/>
	<path d="M315.443,528.815c-0.186,0.414-1.727,4.151-1.657,4.154c-0.424-0.018-1.982,9.505,8.735,16.534
		c2.43,1.593,6.349,5.24,6.645,0.074c2.273-0.92,1.441-9.284,1.425-10.839c-0.001-0.001-2.24-7.583-10.346-11.409
		C317.651,526.106,316.624,526.189,315.443,528.815z"/>
	<path d="M278.955,559.656c0.85-3.062,0.397-6.338-0.739-9.262c-6.936-8.242-13.342-6.35-10.124,2.183
		c1.719,1.256,1.996,4.464,7.432,6.372C276.489,559.291,277.968,560.322,278.955,559.656z"/>
	<path d="M307.819,548.816c-0.372-1.549-1.054-3.438-2.498-4.315c-1.424-2.703-2.517-1.517-4.527-0.338
		c-6.997,4.104-2.745,18.681,1.008,19.433c3.514,0.704,5.164-7.44,6.766-8.225C308.314,553.474,309.642,550.205,307.819,548.816z"/>
	<path d="M169.406,553.868c0.015-0.235,0.029-0.469,0.043-0.704c-0.918,0-5.441-0.464-5.452,0.368
		c-0.011,0.791-5.435,2.829-4.926,4.084c-2.194-0.349-5.941,6.681-3.287,7.661c2.731,1.009,5.279,0.838,8.606,0.882
		c0.577-1.855,3.906-0.81,5.506-3.872c1.451-1.448,2.426-3.319,3.021-5.266C172.933,555.486,171.585,553.134,169.406,553.868z"/>
	<path d="M259.571,577.638c2.812,2.391,7.176-0.503,10.083-0.695c0.203-1.836,9.1-4.593,7.944-15.138
		C263.986,556.481,257.68,575.144,259.571,577.638z"/>
	<path d="M246.678,562.641c-0.664-0.765-2.595-7.02-3.754-7.27c-0.255-3.871-6.985-6.207-8.991-8.673
		c-4.15-0.252-6.97,10.696-8.081,12.122c-1.848,6.604,4.712,16.852,7.136,18.226c-0.306,0.428,3.672,3.445,4.115,3.973
		c3.744,5.77,5.653-2.046,7.421-5.261c1.453-2.642,2.617-7.652,2.22-10.562C246.41,564.54,247.199,563.239,246.678,562.641z"/>
	<path d="M287.635,573.384c0.357,0.973,2.654,0.973,3.398,0.714c1.688-0.589,0.393-5.209,0.246-6.484
		c-2.668-2.762,1.348-2.202-8.393-7.16c-5.101-2.596-3.942,5.807-2.883,8.034C280.894,570.362,285.592,573.705,287.635,573.384z"/>
	<path d="M213.728,572.685c-1.683-3.211-4.24-7.901-6.802-7.966c-1.322,0.994-4.995,2.515-4.981,4.402
		c-2.687-0.718-7.27,13.499,3.811,24.44C209.561,593.137,216.948,582.926,213.728,572.685z"/>
	<path d="M151.721,579.887c0.498,7.091,3.25,11.177,11.191,12.959c0.449,1.205,6.824,0.744,7.873,0.673
		c0.993-2.296-1.213-12.131-3.975-12.171c-1.553-0.023-2.66-2.987-3.688-2.987c-1.509,0-1.477-0.447-3.093-0.684
		c0.013-0.223,0.042-0.497,0.043-0.719C156.862,576.905,151.388,575.153,151.721,579.887z"/>
	<path d="M170.438,612.09c1.356-4.553,0.791-9.166,0.405-14.18c-1.935-3.131-7.213,0.69-9.502,0.69
		c-1.962,0-7.045,4.447-7.773,5.991c-3.256,6.906-3.192,11.839-2.556,19.105C151.49,629.145,168.081,620.006,170.438,612.09z"/>
	<path d="M179.134,607.16c0.81-0.005,6.606,3.551,10.484,2.298c1.085-0.252,3.261,0.563,4.023-0.535
		c0.656-0.945-0.552-3.54-0.816-4.532c-0.771-0.405-2.763-4.317-2.913-5.756c-1.028-1.197-4.465-3.955-6.48-3.617
		c0.496-1.132-8.064-0.7-8.868-0.709c-4.023-0.045-0.083,6.078-0.401,7.929C175.586,602.909,177.11,607.187,179.134,607.16z"/>
	<path d="M881.343,1320.394c0.923-0.344,4.091,0.449,5.997,0.929c3.5,0.88,7.468,1.88,11.039,0.948
		c14.482-3.771,24.102-0.092,34.288,3.803c6.859,2.624,13.952,5.335,22.3,5.41c11.406,0.101,22.462-3.564,33.15-7.112
		c4.143-1.375,8.429-2.798,12.566-3.929c11.467-3.138,35.421-6.526,35.661-6.56l0.71-7.706c-1.056-0.353-26.022-8.646-39.468-7.459
		c-6.033,0.538-11.354,3.144-16.501,5.665c-2.817,1.38-5.478,2.682-8.183,3.626c-1.95,0.68-3.861,1.473-5.711,2.24
		c-4.275,1.775-8.313,3.451-12.331,3.598c-4.658,0.152-9.366-1.413-14.359-3.083c-3.272-1.096-6.655-2.229-10.17-2.906
		c-4.027-0.773-8.096-1.122-12.029-1.458c-5.748-0.492-11.178-0.956-16.283-2.649c-4.298-1.425-8.302-3.914-12.542-6.55
		c-3.438-2.137-6.992-4.345-10.838-6.036c-1.282-0.562-2.565-1.15-3.852-1.74c-6.309-2.89-12.831-5.879-20.03-6.456
		c-4.1-0.33-7.968,0.933-11.381,2.046c-3.138,1.024-6.107,1.984-8.709,1.616c-4.31-0.618-8.383-3.4-12.695-6.345
		c-4.698-3.209-9.557-6.527-15.425-7.565c-17.976-3.177-38.596-0.885-61.289,6.814c-7.305,2.477-13.581,6.989-19.65,11.354
		c-5.071,3.646-9.861,7.09-15.104,9.348c-4.805,2.069-9.302,4.673-13.649,7.189c-4.891,2.832-9.512,5.508-14.505,7.465
		c-9.334,3.656-16.774,1.077-28.064-5.331c-11.493-6.526-23.218-12.521-33.437-21.006c-12.975-10.773-26.638-19.738-27.434-38.153
		c-0.565-13.072,3.397-24.558,1.524-37.744c-1.685-11.863-5.578-23.384-5.876-35.435c0.022-21.577-3.209-19.727-2.957-34.088
		c-0.243-13.612,5.893-47.281,23.596-56.166c61.405-27.606,107.905-36.113,118.474-50.683
		c13.527-19.051-21.756-42.367-39.734-55.862c-45.461-34.009-69.753-26.359-80.901-98.445c-1.861-12.408-0.434-16.845,0.741-22.049
		c5.468-23.562,13.041-46.635,22.637-68.839c19.039-43.027,22.731-94.522,19.011-104.342c-1.734-4.41-4.387-8.513-7.956-11.653
		c-15.759-14.487-31.817-28.787-49.59-40.792c-9.835-6.643-16.87-15.936-17.689-28.151c-0.826-12.317,6.098-20.943,11.093-31.416
		c4.124-8.644,9.531-16.877,15.516-24.337c9.552-11.905,20.784-22.207,31.219-33.299c6.156-6.544,12.09-13.507,16.123-21.597
		c9.95-19.333,34.45-102.987,74.047-128.59c6-3.879,16.903,22.835,16.968,24.77c0.065,1.935-1.911,2.245-2.464,3.961
		c-11.187,14.202-19.951,31.123-13.551,48.552c0.761,2.523,1.495-3.175,1.435-2.928c0,0,3.538-17.208,3.538-17.209
		c1.191-2.723,2.245-5.591,3.68-8.195c1.081-1.545,2.779-3.767,3.578-5.448c2.224-2,5.405-6.774,8.734-6.774
		c1.846,0,4.071,7.009,5.033,8.427c6.545,9.653,13.728,19.643,23.379,26.406c30.421,21.316,56.197,22.112,58.376,20.914
		c-0.18-0.361-49.97-19.018-57.736-34.819c9.501-1.265,20.188-9.21,21.681-19.242c-4.326,1.195-29.699,39.427-47.034-26.026
		c-1.236-4.666-5.513-24.676-1-26.407c16.978-6.511,33.894-8.414,53.452-2.081c35.224,11.404,29.746,21.129,39.987,36.828
		c0.22,1.508,8.397,15.524,24.648,21.56c5.703,2.118-10.999-10.014-16.67-20.065c-14.045-28.249-5.174-0.326,83.633,23.349
		c5.054,1.347,10.628,3.614,15.873,3.701c-1.145-1.635-4.651-2.637-6.345-3.48c-6.03-1.409-11.591-4.981-17.216-7.449
		c-27.88-12.23-32.167-14.425-29.06-16.313c10.988-6.674,27.945-4.119,27.712-3.758c1.637-2.523-11.105-5.061-12.194-5.175
		c-18.134-1.9-22.692,9.9-31.046,3.322c-28.273-14.848-57.792-37.195-58.153-37.439c-1.317-0.887-6.144-1.935,6.23-13.693
		c26.484-25.166,61.799-10.22,63.129-10.124c-0.818-2.492-5.414-4.082-7.585-5.202c-20.1-11.498-33.376-4.923-39.372-4.565
		c1.659-15.899,21.962-24.423,14.732-22.91c-7.68,1.608-18.096,10.279-23.042,27.247c-3.778,2.347-4.167,1.416-13.519,10.151
		c-2.789,2.605-6.283,8.901-9.456,10.833c-4.362,2.654-5.514-3.081-23.832-6.237c-22.901-3.945-51.804,7.199-71.366,18.265
		c-16.819,9.514-16.769,11.586-21.276,14.964c-0.028-0.723,33.894-60.123,34.123-60.486c19.861-31.531,8.056-23.169,26.695-7.921
		c38.336,31.361,68.889,3.79,69.332,1.681c-4.938,0.873-20.905,9.624-39.31,4.991c0.403-2.393,3.985-5.28,5.623-9.405
		c3.301-8.313,0.465-13.242-0.303-9.333c-6.576,33.441-30.793,4.156-35.388,0.697c-3.21-2.415-4.822-6.59-6.812-9.949
		c-2.043-3.446,2.294-8.241,4.105-11.218c1.772-0.812,3.785-6.183,4.984-7.887c4.477-6.363,11.412-24.568,35.27-43.343
		c10.567-8.315,9.444-6.89,13.246-4.533c26.797,16.611,48.853,7.565,50.694,3.472c-8.981-0.674-31.52,2.846-42.113-10.331
		c-2.228-2.768,3.647-2.325,4.901-4.126c1.807,0.169,4.523-1.235,6.089-2.131c2.341,0.113,5.807-1.338,7.954-2.178
		c33.064-7.635,60.859,0.149,42.648-5.841c-50.369-16.296-97.499,10.785-107.152,23.084c-3.044,1.552-5.297,5.146-7.89,7.322
		c-0.262-11.327,0.009-22.274-3.162-33.311c-6.847-38.12-39.291-58.33-39.928-59.319c-0.199,0.099-0.411,0.225-0.627,0.361
		c-2.23-1.943-4.754-3.545-7.313-5.093c-2.073-2.294-9.527-4.977-10.987-5.111c-0.482-1.227-5.03-2.216-5.79-1.5
		c1.023,0.695,6.14,5.126,7.324,5.126c0.171,0,0.385,0.092,0.634,0.252l-0.634-0.252l3.521,3.13c0,0,27.483,22.593,34.247,40.83
		c-11.557,0.521-2.864-0.803-15.84,2.539c-3.789,1.786-9.753,5.529-10.178,10.199c3.625-1.391,6.841-3.608,10.469-5.094
		c10.647,0.585,26.091-12.697,26.371,42.255c-10.005,4.04-50.577,9.765-55.991,11.505c0.342-0.842-0.095-2.263,0.914-2.786
		c9.923-4.192,28.297-16.965,28.365-27.613c-2.027,0.548-3.675,3.08-5.084,4.562c-5.348,5.627-13.832,2.162-23.907,13.1
		c-3.303,3.587-8.832,3.408-13.543,2.287c-4.731-1.126-0.299-5.884-9.326-28.997c-5.056-12.946-10.72-17.187-8.68-21.738
		c9.09-20.28-2.035-39.486-4.823-39.486c-0.385,0-1.5,4.564-1.515,4.301c-0.3,0.737,1.642,3.449,1.965,4.271
		c4.701,11.963,1.389,20.764-0.492,27.808c-1.751,0.461-5.743-5.449-7.048-6.867c-13.713-14.893-38.255-23.419-38.255-23.419
		c-1.483-1.659-6.994-20.512-23.181-25.076c-12.07-3.403,12.073,6.97,13.911,19.954c1.203,8.487-4.396-3.278-27.638,6.05
		c-10.158,3.436-20.948,16.016-21.872,19.309c-1.667,2.467-4.34,5.253-4.727,8.348c2.168-0.936,2.951-3.218,4.668-4.748
		c0.847,0.039,2.605-1.769,3.076-2.473c0.915-0.34,1.443-1.166,2.051-1.861c34.744-19.554,64.558-11.992,85.712,18.585
		c2.919,4.22-0.188,0.18-14.473,5.819c-6.219,2.455-12.097,6.086-17.528,11.659c-1.455,1.493-3.325,4.851-5.391,5.106
		c-1.539-2.969,0.852-2.61,6.899-9.849c4.133-4.948,6.913-13.777,5.081-20.572c-1.495-6.03-0.952-9.839-14.604-0.726
		c-12.14,8.103-15.615,20.858-14.441,34.867c0.316,3.763,3.179,1.762,5.413,0.551c7.47-4.049,5.649-2.867,7.153,1.962
		c1.759,5.645-4.347,9.799-5.369,27.527c-0.825,8.859,0.127,6.809-4.406,7.727c-3.636,0.736-6.922,2.115-10.637,2.496
		c-2.239-2.53-15.129-10.635-15.49-10.838c-1.959-1.992-4.012-1.567-0.779-3.658c9.345-6.044,17.242-19.309,19.22-30.279
		c-2.236,0.15-2.122,2.335-3.049,3.845c-8.186,9.912-9.863,13.888-19.35,19.407c-2.085,1.213-4.259,3.823-6.939,3.823
		c-0.363,0,0.058-2.74,0.064-3.14c0.161-10.59-4.665-16.92-6.859-16.724c0.052,1.44,4.255,9.942,3.104,16.394
		c-0.392,0.712-0.05,2.461-1.322,2.494c-2.843-1.36-5.815-2.593-8.957-3.078c-2.567-1.049-1.155-5.033-5.321-9.809
		c-0.595-0.681-7.214-6.262-8.664-4.467c-0.541,0.668,4.603,4.741,4.855,5.005c1.854,1.938,2.807,4.307,2.946,7.102
		c-1.207,1.124-5.131-0.615-6.629-0.659c-11.216-0.327-6.72-1.606-21.729,1.397c-1.077-2.099-0.521-5.536-0.773-7.864
		c4.4-0.113,2.457,2.286,13.133-0.856c2.147-0.632,2.609-1.053,1.241-3.541c-3.69-6.708-9.161-10.268-12.513-10.847
		c-1.881-0.843-3.118,0.621-3.289-2.037c-0.755-11.722-1.599-23.7,0.88-35.177c2.736-12.673,3.757-19.426,6.613-22.558
		c6.865-0.597,13.824-1.07,20.465-3.589c14.493-5.5,25.482-16.657,26.489-23.477c-4.701,1.405-16.919,16.247-33.326,16.247
		c-11.694,0-8.323-1.046-3.965-8.33c5.851-9.782,19.245-21.999,19.6-22.36c11.538-11.764,22.14-14.663,22.014-18.362
		c-6.044,1.194-25.315,9.948-27.5,12.579c-21.723,12.402-42.518,38.865-48.591,69.73c-0.44,2.301-0.527,9.321-2.427,10.847
		c-1.135-4.047-18.646-27.322-44.946-39.723c-1.41-0.665-11.309-3.695-11.278-6.044c2.182-16.821-5.591-23.651-10.238-23.554
		c0.149-1.149-4.237-1.294-4.92-0.958c-4.229,2.085-2.766,15.759,1.911,20.401c1.06,1.053,2.169,1.102,2.574,2.556
		c-2.516-0.423-10.092-0.165-11.58-1.728c-4.159-0.434-11.322-1.311-15.339,0.062c-4.823,1.649-20.903,1.8-21.34,5.626
		c28.549,0.626,4.586-1.756,40.139,3.581c5.488,0.824,11.524,3.967,16.793,5.28c0.774,2.548,7.787,0.949,7.972,4.455
		c-14.169,6.57-16.442,25.5-13.046,24.865c0.826-0.154,1.537-4.355,1.933-5.078c6.568-11.975,16.972-18.903,27.673-10.255
		c1.769,1.665,3.695,3.031,5.514,4.657c3.397,3.038,9.749,10.968,11.523,12.153c15.361,19.485,17.174,25.279,18.68,68.855
		c-11.226-1.265-12.92-1.944-8.381,9.509c6.372,16.078,9.394,4.899,11.769,19.338c21.291,129.455,14.395,78.286,3.854,71.695
		c-2.278-4.451-26.115-43.332-27.425-43.928c-0.353-1.214-9.301-16.024-10.438-16.588c-0.988-2.77-3.519-4.688-4.298-7.481
		c8.602-3.258,16.613-6.363,19.816-16.066c0.878-2.659,3.011-12.14,0.07-14.024c-0.752-0.627-15.497-2.718-25.77,7.977
		c-6.049,6.299-0.411,13.294-20.373-17.301c-1.546-2.369-1.903-3.216,0.225-5.195c1.423-1.318,2.094-3.755,3.695-4.819
		c1.406-2.109,8.441,0.013,10.674-0.384c6.107-1.086,9.5-3.217,9.5-3.217c2.807-0.131,0.421,1.01,3.519,7.911
		c4.171,9.419,13.136,12.822,19.287,10.883c3.093-0.187,2.451-1.718,2.292-4.278c-0.214-3.441-1.93-13.687-6.424-14.61
		c-1.08-0.616-1.277-2.451-2.889-2.107c-1.312-0.34-1.02-1.594-2.35-1.594c-0.657,0-3.015-1.024-3.76-1.295
		c-5.951-7.912-6.759-10.115-18.294-13.824c0.251-4.669,0.874-9.226,1.048-13.952c0.404-2.233-2.633-11.206-2.918-6.308
		c-0.285,4.906-1.491,10.185-2.986,14.885c-2.96,9.306-0.122,2.227-11.45,9.065c-13.458,5.158-1.868,9.193-2.22,12.903
		c-1.232,0.6-2.247,1.598-3.557,2.049c-4.184,1.437-1.734-12.484-8.161-7.924c-6.03,4.278-7.288-5.865-27.641-14.626
		c-1.332-0.573-3.006-2.02-4.237-2.405c-7.517-2.351-3.539-0.546-8.951-11.86c0.419-4.295-8.002-13.727-12.707-16.992
		c-1.381-0.959-1.817-1.229-1.454-2.981c1.367,0.172,1.008-1.4,1.651-1.4c2.064,0,4.325-7.816,4.586-9.376
		c0.936-7.647-4.211-17.981-6.585-18.356c-3.292-0.52-9.665,9.185-10.755,12.253c-2.063,5.807-1.546,9.038,0.002,14.707
		c-1.258,0.065-14.847,0.088-13.919,1.491c1.091,1.65,4.466,0.713,6.102,0.615c2.164,0.443,4.22,0.924,6.328,1.543
		c2.34-0.282,3.717,2.22,5.904,2.135c1.836,1.616,15.261,6.624,17.537,24.123c-4.171-0.395-8.468-1.817-12.353-2.381
		c-2.209-0.127-18.222,0.96-18.665-0.871c-0.19-0.784-1.914-6.282-3.36-6.282c-1.177,0-4.707,4.319-5.025,5.233
		c-0.786,2.26,0.008,3.212-2.365,4.014c-3.213,1.086-5.434,0.191-9.976,2.346c-3.168,1.503-8.47-5.721-16.101-5.915
		c-3.654-3.106-10.202-2.411-14.841-2.182c-0.284,0.119-7.931,1.885-8.917,4.293c1.37,0.006,24.67-0.511,23.886,3.582
		c-2.903-0.005-10.548-0.209-13.111,2.09c-12.932,5.872-8.822,5.145-13.396,7.648c-1.877,1.027-2.52,4.213-5.134,3.938
		c-6.679-11.381,1.257-25.57,1.367-27.38c-6.17,0.102-12.488,24.836-6.325,34.042c-1.497,3.381-13.06,16.2-16.49,45.972
		c-4.044,0.342-20.333-12.569-15.132-36.581c0.852-3.932-1.488-1.289-1.361-0.929c-1.942,5.404-7.803,13.43-0.149,28.901
		c1.888,3.818,12.243,13.951,14.643,13.704c1.981,1.674,2.011,3.4,2.287,5.793c1.162,10.074,3.653,19.899,7.836,29.132
		c5.972,13.185,6.477,8.922-0.182,16.269c-1.225,0.99-4.415,2.868-5.347,2.868c-1.22,0-3.853,0.145-3.938,1.516
		c-0.361-0.073-20.902,1.73-21.356,0.135c-17.512-2.17,10.173,11.279,28.589,4.801c3.615-1.272,7.327-2.801,10.986-4.495
		c3.87-1.792,8.117,4.838,8.521,8.17c-1.492-0.112-4.511,7.178-4.755,8.212c0.42,1.417,4.042-4.887,4.385-5.244
		c2.459-1.124,0.473-5.102,9.245,6.426c7.402,9.728,72.531,84.347,72.531,84.347c-2.808-0.182-26.539-14.207-28.917-13.692
		c-6.868-5.124-80.859-39.14-86.501-38.916c-0.03-1.431-1.798-0.736-2.989-1.324c-1.166-0.575-1.388-0.683-2.77-0.834
		c0.13-0.433-7.837-3.087-8.863-3.922c-26.144-21.297-28.314-39.454-31.486-43.715c-3.257-11.362,12.685-18.643,18.966-18.053
		c7.972,0.749-1.878-6.684-12.157-2.185c-12.225,5.351-9.27,8.613-10.577,1.487c-4.217-22.88,6.069-49.71,6.575-55.607
		c-3.008,1.69-5.783,8.197-7.239,11.486c-20.267,38.022-1.642,86.482,13.519,99.8c-1.021,1.018-4.701,0.652-5.935,0.492
		c-26.157-3.388-53.717,3.185-75.712,22.396c-0.361,0.153-10.636,8.894-14.976,15.191c-1.035-0.239-5.662,7.151-5.903,7.932
		c2.93,0.066,10.194-9.376,12.617-9.376c0.864,0,1.818-1.609,2.494-2.186c1.479,0.195,3.535-2.059,4.756-2.844
		c12.387-7.962,26.362-12.251,26.362-12.251c2.84-0.392,6.776-2.441,9.337-2.194c1.365,15.267-24.127,31.589-24.179,32.061
		c25.349-2.702,34.107-30.202,35.817-33.426c2.529-2.689,30.815,1.312,31.176,1.312c0,0,5.419,2.894,9.869,2.974
		c6.292,1.894,12.953,6.326,16.243,6.43c4.104,0.133,8.526,4.151,12.612,5.089c1.441,0.535,7.302,2.413,6.547,4.618
		c1.356,5.462,1.22,18.51-5.846,32.413c-1.451,2.854-1.492,3.98-11.536,3.299c0.107-0.205,0.212-0.412,0.313-0.62
		c-3.42-0.481-13.597-8.619-8.721-3.018c4.057,4.66,8.783,6.774,13.794,8.053c0.044,2.173-2.742,4.052-4.163,5.039
		c-2.302,3.588-20.689,11.524-22.227,11.524c-1.238,0-3.307,0.013-4.145,1.097c-2.319,3.004,16.44,0.05,16.488-1.055
		c0.361-0.03,8.919-1.49,9.333-3.715c1.812,0.149,24.438-9.39,25.662-51.129c0,0,55.822,23.828,55.824,23.828
		c1.152,1.231,20.948,9.398,21.376,9.335c-0.165,1.557-11.555,0.666-13.038,0.668c-5.232-0.054-31.579,4.691-34.689,7.084
		c-0.921,0.216-1.433-0.303-2.438,0.135c-0.52,0.227-2.847,1.138-2.981,1.368c-0.368,0.165-31.92,9.494-41.999,34.14
		c-0.923,2.258-4.827-0.141-7.376-0.141c-0.98,0-0.468-0.904-1.602-0.904c-2.589,0-8.2-1.247-8.56-1.259
		c-12.496-0.419-12.224,1.098-17.536-2.215c-15.351-9.574-30.263-5.028-27.329-2.882c24.344,0.641,26.333,9.378,18.199,9.378
		c-1.808,0-3.547,2.837-8.481,5.473c-1.164,0.622-1.044,2.037-2.107,2.561c-5.497-1.3-19.044,33.745-9.599,17.197
		c0.879,0.211,8.28-8.688,9.733-9.887c2.201-1.817,4.165-3.447,6.528-5.228c0.663-0.068,7.092-2.766,6.942-3.576
		c4.253,0.048,7.506-2.93,11.506-2.93c3.611,0,12.008-1.397,14.65,0.683c0.765,0.602,2.232-0.067,3.071-0.067
		c1.355,0,0.06,0.911,1.384,0.911c1.941,0,3.853,1.342,5.213,1.39c4.735,0.162-21.069,64.33-24.487,67.612
		c-10,0.606-25.641,9.151-27.945,18.947c3.002,0.125,2.144-2.587,10.327-8.028c1.869,0.214,2.529-2.137,4.301-2.137
		c1.413,0,2.354-1.479,3.897-1.433c10.95,0.329,4.791-1.185-6.019,24.474c-1.016,1.837-3.454,8.15-5.092,9.297
		c-0.56,0.391-7.548,10.819-8.198,13.885c2.971-0.99,22.853-28.433,24.587-31.045c2.07-0.822,6.071-7.898,6.466-9.372
		c12.907-19.658,18.125-31.598,18.162-31.658c1.019-1.636,3.955-12.734,6.382-12.436c-0.261,3.947,2.108,4.805,2.167,13.536
		c0.069,10.276-5.094,29.243,0.337,19.237c19.389-35.736-21.269-43.705,27.339-89.735c5.617-5.319,21.044-11.369,21.044-11.369
		c2.868-0.744,5.258-1.614,8.203-1.54c0,0,3.07,4.464,9.534,16.581c3.914,7.337,14.268,38.224,3.781,44.706
		c-8.108,2.554,0.073,2.665-15.544,2.908c-1.819,0.028-3.162-0.82-4.633-0.82c-6.223,0,5.879,5.862,9.757,5.862
		c2.129,0,4.279,0.053,6.417,0.053c2.299,0,4.1-2.163,6.234-2.163c5.079-2.003-6.177,30.09-10.562,37.019
		c-1.644,2.6-3.837,5.73-4.893,8.561c-1.126,3.019-6.125,6.769-5.864,9.96c1.925-0.708,2.919-2.299,4.255-3.705
		c8.461-4.247,29.636-31.613,29.675-69.91c-0.048-15.922-4.868-13.18,6.205-13.802c6.898,1.221,17.468,7.983,23.339,13.113
		c1.434,1.681,4.224,5.848,6.516,6.156c-1.941-12.074-23.622-27.123-29.645-27.123c-3.175-0.873-7.005-2.782-10.388-2.845
		c-6.671-28.746-3.172-27.602,0.377-27.458c2.711,0.11,5.5-0.231,8.19,0.087c0.046,0.502,8.814,1.359,9.481,1.329
		c0,0,40.801,11.981,59.842,24.876c28.784,19.492,41.76,28.092,108.564,54.562c0.188,0.074,15.24,6.488,15.402,6.512
		c2.826,0.412,6.401,3.022,9.049,4.227c2.137,0.972,4.298,1.91,6.381,2.995c2.678,1.395,5.172,2.987,6.577,5.754
		c1.784,3.515,1.993,7.905,2.448,11.742c1.002,8.444,1.97,16.883,3.261,25.289c2.496,16.245,10.453,31.596,5.524,48.2
		c-3.756,12.651-12.8,20.808-23.301,28.07c-12.651,8.748-25.574,17.148-37.498,26.893c-0.737,0.602-1.471,1.208-2.203,1.816
		c-4.853,3.892-8.778,11.299-8.966,17.485c4.464,85.627,73.191,135.376,46.651,208.3c-25.658,70.248-3.345,99.073,28.03,237.77
		c8.358,36.612,18.844,54.4,21.867,80.008c1.755,14.863,2.312,29.22-6.642,42.101c-7.724,11.111-19.279,14.254-29.871,21.469
		c-11.936,8.132-23.485,16.816-34.994,25.537c-7.899,5.986-18.581,7.477-28.91,8.919c-1.444,0.202-2.881,0.403-4.301,0.612
		c-23.645,3.518-48.225,2.265-69.149,0.576c-21.653-1.746-44.609-4.059-66.287-11.313c-3.272-1.095-6.468-3.542-9.851-6.134
		c-5.375-4.118-11.477-8.79-18.952-7.978c-14.433,1.546-26.786-5.942-38.733-13.186c-10.754-6.52-20.92-12.674-31.835-11.651
		c-11.421,1.083-23.499-2.1-36.289-5.46c-3.776-0.992-7.681-2.019-11.584-2.933c-11.396-2.669-22.917-0.46-34.057,1.675
		c-2.368,0.454-4.725,0.906-7.065,1.306c-1.107,0.19-2.239,0.341-3.377,0.493c-4.569,0.611-9.747,1.304-14.098,4.44
		c-10.647,7.679-24.236,33.058-31.388,47.505l7.035,3.703c9.231-16.531,29.681-43.278,47.731-38.678
		c10.362,2.639,25.702,5.491,39.241-0.187c18.203-7.64,34.963,1.895,52.706,11.987l1.983,1.128
		c9.193,5.215,22.156,6.544,34.691,7.828c21.54,2.209,34.573,4.41,33.92,16.354c-0.219,4.018-8.374,4.02-17.428,3.649
		c-2.502-0.101-4.866-0.196-6.963-0.139c-4.554,0.128-9.371-1.846-14.496-3.935c-7.608-3.1-15.473-6.31-23.595-3.047
		c-17.604,7.07-35,5.933-53.186-3.474c-12.788-6.622-27.367,3.787-38.014,11.384l-0.584,0.416
		c-14.491,10.33-43.188,49.495-44.404,51.156l5.765,5.393c1.409-1.181,34.595-29.026,42.833-38.609
		c12.956-15.067,22.832-15.375,34.573-10.98c14.015,5.246,29.111,5.172,43.712,5.11c2.089-0.009,4.175-0.021,6.256-0.014
		c9.398,0.027,19.037,1.68,28.359,3.278c9.314,1.597,18.945,3.248,28.656,3.385c9.109,0.127,18.13-1.209,26.871-2.501
		c9.586-1.417,18.642-2.762,27.808-2.348c8.165,0.359,17.337-0.472,27.047-1.357c25.05-2.274,50.954-4.636,57.502,14.422
		c1.052,3.064-2.45,15.423-4.931,17.4c-19.055,15.176-43.868,20.63-60.874,23.41c-10.053,1.646-21.644-2.447-32.85-6.405
		c-5.254-1.856-10.687-3.776-15.844-5.039c-11.105-2.717-21.991-7.699-32.519-12.515c-10.75-4.918-21.866-10.004-33.566-12.917
		c-10.8-2.688-22.592-0.891-33.993,0.847c-7.093,1.083-13.781,2.061-20.047,2.063c-4.823-0.032-9.378-1.461-14.2-2.976
		c-7.486-2.352-15.228-4.78-23.905-1.63c-12.055,4.379-31.452,20.595-32.271,21.282l5.033,6.156
		c6.185-4.92,18.134-12.491,23.83-11.768c0.981,0.119,1.367,0.464,1.614,0.786c3.201,4.164,0.207,11.77-2.959,17.542
		c-10.54,12.523-22.379,28.369-22.498,28.529l5.968,5.22c0.61-0.598,14.904-14.669,23.087-29.187c3.143-3.72,5.86-6.768,8.061-9.043
		c0.752-0.776,1.495-1.583,2.242-2.394c2.723-2.958,5.295-5.754,8.287-6.993c10.068-4.171,22.958-4.927,37.278-2.191
		c5.093,0.974,11.149,1.359,17.561,1.764c11.044,0.701,23.561,1.494,30.946,5.666c9.325,5.268,24.985,16.47,25.097,32.297
		c0.075,10.677-11.844,18.62-22.236,24.348c-6.166,3.399-15.211,4.315-23.957,5.202c-5.65,0.573-10.987,1.114-15.755,2.293
		c-20.281,5.018-63.044,5.332-63.474,5.335l-0.187,7.946l8.826,0.464c19.834,1.034,35.499,1.853,54.834,3.76l0.486,0.048
		l0.483-0.071c2.143-0.315,4.296-0.621,6.453-0.927c17.216-2.447,35.017-4.976,51.186-12.745c5.594-2.688,10.086-6.943,14.43-11.06
		c4.008-3.797,7.793-7.384,12.168-9.552c7.932-3.934,17.147-5.404,26.058-6.826l0.486-0.078c7.908-1.262,15.851-1.315,24.261-1.369
		c8.726-0.057,17.749-0.118,26.64-1.668c11.129-1.942,21.942-5.585,32.399-9.109c7.059-2.379,14.357-4.839,21.583-6.705
		c5.837-1.508,12.039-4.648,18.037-7.685c13.845-7.01,23.382-11.137,29.547-4.881c3.06,3.106,0.177,10.426-2.367,16.884
		c-0.97,2.462-1.886,4.789-2.563,7.037c-0.446,1.478-0.869,3.016-1.298,4.576c-1.999,7.266-4.067,14.781-8.986,18.107
		c-3.944,2.666-10.074,1.092-16.564-0.576c-8.224-2.117-17.546-4.51-24.171,2.31c-11.248,11.574-25.268,11.782-40.112,12.004
		c-5.157,0.075-10.49,0.155-15.677,0.746c-10.393,1.182-18.464,8.16-26.269,14.908c-3.751,3.243-7.295,6.307-11.028,8.715
		c-3.536,2.28-6.839,5.772-10.034,9.151c-6.221,6.578-10.573,10.74-14.212,8.837c-44.184-23.187-94.401,17.682-94.881,18.11
		l-2.06,1.838l2.548,6.592l3.884-1.877c9.887-4.778,38.483-15.91,51.912-10.099c3.248,1.404,5.342,3.729,6.404,7.106
		c0.818,2.604,0.55,4.903-0.842,7.236c-5.431,9.097-25.544,14.73-32.836,16.132l0.835,7.881c2.066-0.045,50.705-1.408,61.258-29.212
		c2.428-6.396,7.527-8.263,15.646-10.778c5.534-1.714,11.808-3.656,17.12-8.205c2.957-2.53,5.956-5.451,8.856-8.273
		c4.236-4.125,8.616-8.389,12.925-11.512c14.05-10.181,32.096-18.023,40.614-9.493c1.093,1.093,0.615,5.261-2.412,11.108
		c-2.749,5.312-8.249,8.588-14.072,12.058c-6.036,3.598-12.279,7.316-16.274,13.701c-5.11,8.168-5.428,18.169-5.736,27.84
		c-0.261,8.213-0.508,15.969-3.514,22.204c-6.517,13.514-30.981,34.847-31.227,35.061l3.993,6.729
		c1.018-0.379,25.032-9.394,33.382-20.049c5.503-7.023,7.312-15.877,9.063-24.44c0.859-4.205,1.671-8.177,2.886-11.904
		c1.086-3.329,1.921-6.773,2.728-10.104c1.613-6.648,3.135-12.928,6.438-18.044c4.108-6.367,10.619-10.998,16.938-15.196
		c2.639-1.752,5.255-3.845,8.025-6.06c7.698-6.155,15.656-12.527,21.911-9.431c1.092,0.538,1.352,4.085,1.542,6.674
		c0.161,2.194,0.328,4.462,0.904,6.559c1.921,6.993,6.784,13.7,11.488,20.186c4.48,6.179,9.113,12.567,10.512,18.442
		c1.456,6.114-0.03,12.48-1.604,19.22c-1.262,5.407-2.567,10.998-2.458,16.875c0.136,7.374-1.314,18.761-4.193,32.937
		c-2.347,7.836-4.187,14.454-5.32,19.142c-1.603,6.633-2.662,11.014,1.184,12.667l4.194,1.802l1.21-4.401
		c0.034-0.126,3.48-12.708,6.451-27.266c5.64-18.793,14.676-46.046,21.084-61.931c3.382-8.382-1.436-16.394-5.686-23.466
		c-2.023-3.364-3.934-6.542-4.972-9.587c-0.86-2.523-1.923-4.967-2.952-7.332c-2.076-4.775-4.037-9.286-4.182-13.915
		c-0.225-7.231,1.594-14.336,4.995-19.49c1.922-2.913,5.217-4.831,8.704-6.86c2.533-1.473,5.153-2.998,7.518-5.033
		c10.974-9.442,22.173-20.444,34.238-33.639c4.577-5.004,8.082-12.24,11.471-19.238c6.354-13.115,11.045-21.599,18.114-20.128
		c10.736,2.241,11.457,24.027,11.934,38.444c0.051,1.548,0.101,3.041,0.159,4.457c0.442,10.741-2.254,22.107-7.396,31.186
		c-1.532,2.705-4.264,4.738-7.156,6.889c-3.008,2.238-6.118,4.552-8.471,7.945c-2.51,3.62-3.961,7.675-5.363,11.595
		c-0.899,2.514-1.748,4.887-2.835,7.061c-1.578,3.156-3.586,6.111-5.711,9.243c-3.362,4.952-6.839,10.072-8.669,16.234
		c-1.837,6.187-1.534,12.566-1.242,18.734c0.278,5.859,0.541,11.393-1.002,16.34c-1.005,3.224,0.785,9.228,7.463,28.209
		c1.826,5.189,3.549,10.09,4.747,13.928c0.329,3.354,0.661,6.821,0.987,10.31c-2.197,25.432,3.583,40.951,3.831,41.602l7.678-1.748
		c-0.017-0.201-1.688-20.223-3.523-39.862c0.115-1.258,0.241-2.531,0.401-3.842c0.161-1.322-0.053-3.165-1.536-8.025
		c-0.588-5.959-1.115-11.011-1.567-15.006c-0.482-4.249-1.469-8.448-2.425-12.51c-1.673-7.109-3.253-13.826-2.129-20.274
		c1.637-9.392,7.467-17.635,12.069-22.894c1.038-1.187,2.109-2.453,3.212-3.759c6.86-8.118,15.404-18.223,23.322-16.203
		c3.983,1.013,5.912,7.426,7.777,13.629c0.924,3.07,1.879,6.245,3.15,9.009c2.538,5.519,1.255,17.932,0.121,28.885
		c-0.994,9.609-1.932,18.686-0.687,24.758c5.19,25.277,18.667,61.444,19.239,62.972c0,0,7.453-2.774,7.447-2.789
		c-5.513-14.9-18.267-56.499-11.256-70.153c0.941-1.833,2.143-2.896,3.782-3.346c14.009-3.848,32.762,36.828,41.601,66.932
		l7.758-1.643c-0.433-3.258-10.944-79.982-41.815-97.414c-11.517-6.505-11.856-30.166-12.104-47.443
		c-0.057-3.99-0.111-7.758-0.288-11.081c-0.516-9.661,0.483-17.187,3.056-23.01c2.835-6.416,8.031-12.479,16.35-19.084l1.057-0.841
		c5.865-4.674,12.507-9.899,18.965-9.805c4.198,0.11,8.604,3.979,12.493,7.391l0.812,0.713c8.197,7.162,15.786,14.356,18.584,23.595
		c0.501,1.651,1.224,3.525,1.99,5.509c1.751,4.538,4.149,10.754,3.34,13.82c-1.217,4.605-5.55,8.355-10.138,12.326
		c-5.783,5.004-11.763,10.181-12.839,18.136c-1.277,9.446,0.721,20.23,5.481,29.587c2.538,4.989,7.339,8.153,11.982,11.214
		c3.775,2.488,7.341,4.839,9.024,7.749c3.83,6.621,5.456,14.995,5.117,26.353c-0.561,18.739-19.653,53.564-19.846,53.914
		l6.576,4.419c0.403-0.499,9.987-12.406,21.133-29.385c10.067-15.334,15.03-28.77,15.619-42.281
		c0.348-7.967-5.487-13.977-10.635-19.279c-2.608-2.685-5.073-5.224-6.59-7.764c-5.988-10.028-10.328-20.024-12.55-28.904
		c-0.828-3.31-0.345-7.182,1.199-9.63c0.936-1.484,3.073-2.287,5.546-3.221c3.031-1.141,6.465-2.435,8.902-5.523
		c3.632-4.603,4.192-11.081,4.732-17.347c0.569-6.595,1.134-11.064,3.514-12.035c0.755,0.645,1.95,2.633,2.622,3.748
		c0.645,1.072,1.313,2.182,2.038,3.148c5.141,6.856,9.118,15.007,12.964,22.89c1.009,2.069,2.019,4.137,3.048,6.185
		c1.411,2.806,2.485,5.888,3.623,9.151c2.004,5.746,4.076,11.69,8.217,16.491c4.43,5.137,10.662,7.465,16.689,9.718
		c6.431,2.402,11.984,4.477,14.384,9.412c7.397,15.206,12.702,32.505,14.461,40.422l7.831-1.328l-4.519-38.265
		c8.081,2.755,14.644,10.319,21.525,18.25c2.498,2.88,5.082,5.858,7.755,8.6l6.221-4.881c-0.782-1.251-19.315-30.766-34.124-39.474
		c-5.526-3.249-11.652-3.349-17.576-3.444c-5.251-0.083-10.212-0.163-13.94-2.539c-4.411-2.811-7.401-8.453-9.858-13.52
		c-3.763-7.762-5.106-16.693-6.529-26.145c-1.679-11.159-3.414-22.697-9.501-32.377c-5.894-9.371-14.926-15.206-23.66-20.848
		c-7.43-4.801-14.448-9.335-19.509-15.818c-1.686-2.161-3.694-4.424-5.82-6.82c-6.98-7.869-15.669-17.662-11.56-23.594
		c0.959-1.383,3.635-0.302,9.267,2.639c4.157,2.173,8.456,4.419,12.792,4.522c7.593,0.172,14.893-1.882,21.952-3.878
		c7.573-2.141,14.725-4.16,21.787-3.411c5.025,0.538,10.248,2.604,15.104,5.975c8.745,6.069,16.341,14.413,21.39,23.494
		c1.843,3.317,2.515,7.48,3.227,11.887c0.859,5.318,1.747,10.817,4.814,15.586c3.311,5.146,8.097,8.332,12.725,11.416
		c3.207,2.135,6.236,4.152,8.611,6.705l0.312,0.335c8.141,8.745,16.559,17.787,20.942,28.716c4.07,10.15,4.712,21.929,5.334,33.319
		c0.174,3.192,0.354,6.493,0.607,9.721c0.857,10.954,0.556,33.324,0.553,33.548l7.515,1.87c6.049-11.805,6.538-21.175,7.106-32.026
		c0.3-5.746,0.611-11.687,1.757-18.817l0.082-0.513l-0.052-0.516c-0.197-1.962-0.354-3.94-0.51-5.923
		c-0.57-7.191-1.159-14.626-3.653-21.658c-3.091-8.709-8.268-16.176-13.274-23.398c-1.746-2.52-3.552-5.124-5.206-7.7
		c-2.428-3.781-6.478-7.301-10.395-10.704c-7.579-6.588-10.859-10.153-8.997-12.595c0.97-1.274,2.219-1.968,3.929-2.183
		c10.411-1.334,30.641,14.608,39.269,21.409l0.329,0.259c5.503,4.336,8.025,10.677,10.696,17.389
		c2.401,6.034,4.884,12.273,9.657,17.815c8.143,9.454,24.717,28.304,24.884,28.493l7.907,8.992l-0.957-11.936
		c-0.341-4.252-2.541-25.706-12.391-30.507c-12.457-6.073-17.524-13.626-16.429-24.493c1.15-11.426-9.393-18.777-17.864-24.683
		c-1.849-1.288-3.595-2.504-5.128-3.691c-7.099-5.49-15.321-8.569-23.273-11.545c-7.373-2.761-14.338-5.368-20.322-9.722
		c-2.13-1.548-4.606-2.895-7.226-4.32c-4.411-2.399-8.972-4.879-10.996-7.967c-8.536-13.021-11.124-21.589-7.692-25.465
		c5.568-6.288,14.06-0.541,27.391,9.668c7.45,5.707,15.154,11.609,22.71,13.908c5.458,1.66,10.74,0.528,15.402-0.472
		c4.004-0.859,7.787-1.671,11.245-0.712c4.833,1.342,11.028,5.134,16.006,8.18c0.968,0.593,1.901,1.162,2.785,1.693
		c3.515,2.109,6.887,6.909,9.86,11.143c0.878,1.25,1.729,2.461,2.556,3.57c1.542,2.07,2.457,4.959,3.426,8.018
		c1.366,4.314,2.913,9.204,6.738,12.573c15.469,13.632,55.344,17.762,57.033,17.931l1.705-7.711
		c-0.354-0.124-35.472-12.469-46.846-26.052c-1.423-1.699-2.034-4.431-2.68-7.323c-0.691-3.089-1.405-6.283-3.207-9.181
		c-5.23-8.409-12.61-14.684-18.455-19.212c-7.516-5.822-15.765-11.55-25.148-14.024c-5.684-1.499-11.314-0.828-16.762-0.184
		c-4.734,0.562-9.205,1.093-13.306,0.154c-3.756-0.862-7.344-2.93-11.142-5.119c-1.42-0.819-2.838-1.634-4.269-2.393
		c-3.082-1.635-6.269-3.159-9.351-4.633c-8.543-4.089-16.612-7.951-23.105-14.116c-0.816-0.775-1.677-1.568-2.56-2.379
		c-5.666-5.211-12.086-11.118-11.474-17.364c0.361-3.687,4.233-7.189,11.836-10.708c6.454-2.982,14.524-2.327,21.582-1.478
		c7.531,0.909,15.606,3.555,24.688,8.088c13.009,6.497,24.443,12.682,32.605,22.591c2.008,2.438,3.111,5.877,4.278,9.52
		c1.266,3.95,2.575,8.035,5.22,11.542c3.929,5.209,8.902,7.032,13.711,8.797c2.173,0.796,4.226,1.548,6.247,2.619
		c3.607,1.909,6.624,3.938,9.541,5.901c7.557,5.083,14.696,9.881,26.879,7.827c7.789-1.316,16.664-5.945,25.247-10.423
		c5.66-2.954,11.007-5.743,15.506-7.302c5.826-2.019,12.23-1.844,19.001-1.665c2.824,0.078,5.743,0.157,8.634,0.065
		c5.114-0.161,15.526,0,15.631,0.001l1.282-7.761c-0.713-0.231-17.537-5.648-23.282-7.302c-11.257-3.245-16.396-4.724-28.909-0.558
		c-4.505,1.499-8.076,4.551-11.53,7.503c-3.489,2.982-6.787,5.799-10.322,6.256l-2.705,0.354
		c-12.337,1.639-22.991,3.05-32.404-3.335c-12.794-8.683-29.295-26.21-25.664-35.189
		C881.316,1320.458,881.338,1320.414,881.343,1320.394z M675.295,323.493c0.183-1.983,4.142-2.544,9.122-6.299
		c1.941-0.744,0.413-1.714-1.284-0.961c-2.239,0.401-6.385,3.692-7.44,1.232c0,0,4.427-58.126,4.219-61.048
		c1.037-1.277,3.589,0.37,4.376-1.755c-0.376-1.634-2.963-0.474-3.987-0.632c-0.551-0.085,0.59-16.751,0.651-17.112
		c18.458-4.546,39.248-9.33,56.257-17.962c1.056,0.077,11.652-4.485,12.644-5.08c3.013,0.553,0.603,5.932,0.434,8.319
		c-1.499,21.16-15.201,31.021-20.59,42.544c-1.45,3.101-12.59,22.024-12.846,22.384c-6.445,9.055-42.526,83.069-45.471,86.563
		C671.975,353.433,673.421,343.67,675.295,323.493z M660.989,1027.264c-28.286,8.883-46.313,38.522-80.188,36.184
		c0-28.718,0.002-57.434-0.002-86.149C607.529,993.956,634.253,1010.62,660.989,1027.264z M635.509,436.434
		c-0.067,2.216,1.766,12.133-1.383,6.43c-14.362-30.494-15.478-73.983-13.097-99.291c0.327-3.479,1.77-3.366,4.268-5.478
		c2.971-2.511,4.7-4.148,8.793-4.148c6.012,0,12.166-1.291,18.057-2.513C649.174,356.872,636.025,419.419,635.509,436.434z
		 M661.484,249.968c-3.535-0.443-13.658-3.83-14.712-7.871c3.446-0.69,7.805-1.176,11.313-1.176
		C662.811,240.922,661.98,238.347,661.484,249.968z M607.703,217.805c19.091,0.18,39.318-3.945,43.885-22.383
		c2.316-9.35,0.335-7.169-4.016-7.949c-15.558-1.846-28.027,6.267-29.053,8.72c-2.656,2.592-4.932,7.258-7.767,9.042
		c-0.237-2.982,5.804-11.07,6.464-12.634c7.243-9.31,18.309-16.466,28.602-20.044c1.137-0.031,2.213-1.013,3.374-0.749
		c12.725,20.749,12.883,37.56,13.07,52.378c0.051,4.064,6.232,5.617-53.278,5.201c-2.509-0.018-1.515-2.591-1.505-4.702
		C607.487,222.691,607.044,219.746,607.703,217.805z M598.918,246.499c4.535-4.231,25.024-4.224,30.899-4.067
		c-1.252,5.38-4.738,4.869-6.961,17.179c-2.256,13.138,7.513,26.968,8.8,24.75c0.815-0.244,2.323-2.216,2.53-3.023
		c5.338-4.174,10.541-15.906,11.687-22.134c1.328-7.219-0.883-9.341,2.267-7.389c1.462,0.325,3.15,1.579,4.609,2.099
		c11.012,3.928,7.989-1.259,7.668,12.573c-0.259,11.169-6.755,54.074-6.773,54.436c-0.151,3.084-2.519,2.465-5.24,2.624
		c-2.033,0.119-5.479,0.985-7.508,0.044c6.219-7.643,10.843-18.195,10.97-28.155c0.044-3.433-1.572-1.352-1.558-1.21
		c-4.899,12.599-13.103,23.783-14.677,25.334c-1.611,0.686-2.721,2.091-3.937,3.282c-1.514,1.483-3.915,0.548-5.855,0.378
		c-2.679-0.233-6.011,1.548-2.896-6.932c2.021-5.501,4.321-9.875,3.436-15.946c-0.196-1.029-0.671-5.444-1.677-5.996
		c-2.182-0.744-0.731,4.965-2.426,4.999c-0.444-20.268-8.687-39.18-23.589-52.628C598.768,246.788,598.992,246.469,598.918,246.499z
		 M589.795,254.689c9.095,6.899,16.727,9.494,19.81,36.306c-5.753,3.368-18.944,4.052-28.084-0.315
		c-4.275-2.042-10.091-8.784-12.272-10.431c-0.819-1.203-0.946-2.536-2.527-2.956c-0.089,4.699,8.482,17.239,14.363,18.587
		c12.722,7.687,26.016,1.303,28.863,1.303c0.903,0,1.039,19.928,1.039,20.289c-0.012,5.9-25.608-1.024-51.944-28.516
		c-8.293-8.657-3.702-6.827-3.872-9.741c2.372-3.279,4.415-6.61,6.889-9.722c10.539-9.914,14.343-14.431,19.521-16.164
		C585.407,252.047,586.338,254.148,589.795,254.689z M605.904,411.945c0.234,5.928,1.079,12.004,0.806,17.925
		c-13.995-15.349-17.145-53.176-13.477-82.055c0.5-3.936,2.193-7.803,2.353-11.724c-2.898,0.215-8.673,17.452-9.44,20.674
		c-2.04,0.892-5.445-13.158-5.856-15.961c-0.545-3.723,0.009-7.213-0.253-10.858c0.677-2.407,4.556-7.741,7.167-5.591
		c4.72,2.849,10.487,4.156,15.657,5.881c1.574,0.525,6.826,0.774,7.285,2.459C610.245,333.054,603.592,405.826,605.904,411.945z
		 M386.413,203.42c3.122-1.694,16.997,13.207,19.166,18.261c0.483,1.126,1.308,3.577,2.676,4.076
		c6.899,2.52,35.879,54.414,38.803,58.401c0.119,0.365,62.577,123.085,66.083,127.691c0.826,1.085,6.068,6.745,5.503,7.774
		c-1.688,3.083-31.032-17.029-52.201-44.44c-0.428-0.554-18.254-25.729-19.531-28.987c2.685,0.31,5.915-1.388,4.4-4.184
		c-1.11-2.05-3.103-2.826-2.562-5.347c0.078-0.361,4.527-15.356,3.452-22.475c-1.359-1.712-0.723-4.979-1.428-6.992
		c-0.689-4.451-5.886-18.25-9.183-17.959c2.147,10.883,5.59,23.229,2.133,34.261c-1.46-1.737-2.614-9.487-4.688-10.072
		c-3.174-0.895-7.799,8.94-8.166,8.94c-1.154-0.001-4.517-4.799-4.757-5.655c-0.181-1.787-2.235-3.461-3.265-4.927
		c-4.831-6.881-3.25-2.755-2.772-6.54c0.312-2.47,0.818-1.795-1.464-2.87c-1.179-0.556-3.186-1.588-4.504-1.588
		c-2.747,0-2.904-1.817-5.354-2.865c-2.573-3.263-12.82-11.003-26.934-13.986c-1.938-0.408-3.669-4.75-3.699-1.172
		c-6.008,0.63-12.813-1.617-18.82-2.121c-7.158-0.599-11.919,1.617-9.323-3.828c1.174-2.463,8.415-13.372,16.085-19.545
		c1.473-1.186,10.252-6.814,9.604-7.674c-3.113-4.133-25.592,12.074-25.958,12.265c4.963-19.003,13.986-35.519,20.152-42.921
		c1.387-0.802,3.366-3.243,4.077-4.583c2.109-2.164,5.034-4.178,6.767-6.536c-0.471,0.641,0.752-0.133,0.001,0
		C381.995,207.595,385.285,204.421,386.413,203.42z M346.786,289.245c2.708,0.089,4.848-0.01,7.276,0.074
		c-2.063,1.944-4.491,3.012-6.716,4.656C346.091,292.708,347.143,290.721,346.786,289.245z M374.408,294.02
		c3.813-0.22,1.055,3.336-0.015,5.395c-3.72,7.168-9.659,11.554-17.198,13.703c-3.174,0.905-3.295-0.742-4.693-3.618
		c-1.072-2.204-2.639-4.95-3.165-7.555C352.921,299.836,364.537,294.589,374.408,294.02z M285.897,299.367
		c-3.175-0.055-3.902-3.367-5.925-5.932c-24.923-31.63-22.186-73.075-5.59-90.638c1.007,0,3.89-4.645,4.707-5.519
		c2.059-2.202,4.786-3.109,7.224-4.845c2.845-2.024,4.161-1.482,7.47-1.561c-0.841,0.449-0.473,1.742-1.668,2.534
		c-2.162-0.329-4.483,6.77-6.497,7.298c-4.758,6.545-3.541,14.442-8.358,16.454c-1.94,0.81-6.21-1.222,0.095,9.944
		c-0.1-0.199,1.057,0.711,1.291,0.87c0.106,1.532,0.409,2.959,0.651,4.466c0.187,1.165-0.15,7.263,1.84,6.735
		c0.061-0.021,0.355-3.805,0.326-3.459c0.12-1.423-0.059-2,0.522-3.375c0.751-0.182,1.329,0.812,2.087,0.685
		c0.111,0.688,6.134,4.14,7.612,3.64c1.149,0.343,2.542,0.549,4.206,0.761c2.601,2.476,8.48-0.083,11.409-0.067
		c0.982,0.006,6.313-0.058,7.134-1.351c6.675-0.66-13.658-21.369-20.897-20.352c-2.083,0.293-5.475-0.281-4.311-2.718
		c0.571-3.093,5.17-5.205,5.682-8.021c4.557-4.456,3.999-2.807,5.362,0.168c3.581,7.815,15.437,10.777,16.665,10.648
		c3.274,0.255,3.083-0.834,2.797-4.035c-0.596-6.682-4.482-14.214-11.455-16.311c3.038-3.864,14.836-7.782,19.387-7.751
		c-0.645,3.716-4.683,2.422-0.789,12.432c1.403,3.606,5.113-0.931,6.281-2.353c3.548-3.152,1.583-7.086,0.353-10.811
		c3.819-0.127,6.139,4.643,10.247,5.507c3.118,0.656,9.933-2.155,11.455-4.004c4.861-0.445,0.422,0.441,1.808,0.552
		c3.601-0.407,6.273,2.244,9.376,2.244c3.452,0-0.401,12.914,4.469,10.205c1.035-0.571,2.277-0.662,3.486-1.128
		c1.247-0.481,3.203-2.61,4.738-2.61c0.361,0,8.133,2.402,3.065,4.504c-1.287,0.534-2.14,1.277-3.295,1.964
		c-18.359,10.918-13.868,15.902-16.527,7.627c-0.07-3.227,0.954-5.952,1.082-9.071c-1.531,0.317-7.127,5.514-3.031,15.003
		c1.193,2.765-1.665,5.176-3.282,7.261c-6.078,7.835-16.745,34.697-16.769,42.666c-3.229,17.431-0.741,12.434-8.298,13.627
		c-7.279,1.148-15.617,1.711-22.374,5.097c-1.411-0.081-2.565,0.899-3.919,1.096c-0.655-0.394-1.046-0.812-1.818-1.111
		c-3.206-4.195-16.889-6.259-16.63-1.393c3.931,0.092,7.324-0.337,10.571,1.817c2.928,1.942,4.41,2.568-1.44,5.424
		C290.97,294.845,286.626,298.478,285.897,299.367z M338.153,302.963c-7.162,10.961,1.904,4.084-18.028-11.037
		c2.37-0.832,3.326-0.767,12.522-2.025c2.877,0.191,4.804-0.966,4.769,2.443C337.387,295.252,339.637,300.693,338.153,302.963z
		 M407.07,425.519c-0.313-0.396-95.614-92.194-98.029-96.635c-0.65-1.592-2.028-2.479-3.244-3.613
		c-0.338-0.585-1.891-2.67-2.57-2.89c-0.388-2.054-16.055-15.946-14.49-19.457c0.605,0.252,1.278-0.03,1.538-0.64
		c3-2.349,10.796-5.16,11.157-5.358c2.998-1.643,3.081,0.042,3.621,2.786c3.382,17.199,31.325,24.386,31.694,20.083
		c0.38-4.425-3.574-8.493,1.847-10.945c3.639-1.646,3.074,2.546,4.361,5.112c7.995,15.942,13.415,21.191,19.686,28.629
		c0.142,1.799,2.858,2.947,3.036,5.156c-2.996-0.684-13.788,3.594-23.401-2.031c-0.702-0.411-3.857-1.666-4.7-1.666
		c-1.961,0-5.211-2.588-6.975-3.67c-1.079-0.612-3.657-2.514-4.74-2.478c-0.198,6.5,24.981,22.992,46.64,18.914
		c3.407,0.519,42.273,44.705,46.765,83.15C415.759,439.094,414.771,431.995,407.07,425.519z M396.599,366.694
		c-0.001-0.001-29.84-34.203-29.84-34.203c-2.256-4.845-6.95-7.908-8.627-13.076c-0.395-1.215,6.921-3.769,8.595-4.751
		c6.742-3.957,12.02-10.281,13.647-18.145c0.755-3.649,1.611-1.442,4.695-1.43c5.38,1.459,9.336,6.352,11.61,6.402
		c0.081,1.266-1.859,2.188-2.731,2.812c-6.594,5.157-11.813,14.08-10.575,16.335c1.164,2.126,7.133,3.912,8.899,3.912
		c2.162,0-3.008,2.111-3.361,2.348c-1.998,1.346-5.787,0.444-8.311,1.189c-2.333,0.043-12.196-1.32-12.196-1.32
		c-0.544-0.226-2.036-1.386-2.248-1.424c-2.092-0.379-2.381,0.606-0.932,2.087c1.872,1.914,17.31,7.999,21.695,5.561
		c5.522-1.035,12.55-3.907,16.421-8.103c1.392-1.503,7.735-7.33,9.828-7.245c-0.138,1.274,4.81,6.31,5.678,7.372
		c0.701,2.244,4.021,5.313,5.587,7.108c-0.531,1.491-4.168,1.431-5.563,2.47c-4.865,1.916,1.725,8.883,9.46,7.726
		c3.106-0.464,2.888,0.843,4.722,3.501c1.427,11.756-3.273,29.156-7.746,16.675c-0.355-0.992-1.683-4.905-2.478-5.505
		c-0.642-2.222-1.229,1.234-0.822,2.317c0.159,1.386,0.448,2.381,0.492,3.848c-0.526-0.365-24.399-24.158-32.851-24.172
		c2.884,4.287,36.762,28.763,41.877,69.224C424.203,407.647,433.337,409.359,396.599,366.694z M435.5,381.554
		c-0.537-2.058-2.079-3.854-2.833-5.871c-0.71-1.892,3.595-6.422,5.7-5.215c-0.401,1.243-1.907,8.102-0.81,9.384
		c1.138,1.329,6.764-0.719,9.15-2.577c1.023-0.452,2.412-3.072,3.513-2.925c2.901,3.677,5.121,7.812,7.905,11.573
		c0.208,0.726,2.337,3.96,2.961,4.348c1.418,2.048,2.377,5.04,4.275,6.55c8.085,12.09,10.115,13.08,14.133,18.837
		c2.168,3.107,7.007,6.308,7.831,9.906c-14.175-5.378-17.159-9.986-22.611-12.296c-5.919-6.884-5.706-1.568-25.191-26.017
		C438.05,385.404,437.329,383.128,435.5,381.554z M535.338,499.121c-3.591-2.591-23.181-10.582-27.71-12.356
		c-1.63-1.721-61.21-24.939-66.796-26.251c0.101,0.024,0.198,0.046,0.22,0.052c-0.016-0.004-0.081-0.019-0.225-0.053
		c-3.775-0.885-1.698-4.317-1.056-7.195c8.27-37.03-1.642-41.78,6.311-41.78c2.694,0,6.368,6.732,11.421,9.919
		c2.308,1.455,5.127,2.89,7.122,4.885c8.223,5.936,27.24,14.055,29.258,13.574c47.982,15.81,38.265-7.53,40.393,29.604
		c0,0.001,1.663,23.183,1.663,23.183C536.006,493.853,537.393,499.558,535.338,499.121z M527.534,298.059
		c-1.256,2.766-4.234,3.413-2.643,6.374c-0.442,1.536-3.913,13.149-4.655,12.608c0.151-5.19-2.468-21.68-2.881-23.795
		c-0.306-7.217,6.777,1.475,12.498-9.8c1.404-2.767,1.048-3.307-1.711-4.246c-5.768-1.963-10.064-0.206-11.321,1.513
		c-0.78-0.284-6.463-48.995-6.673-55.57c3.906-0.412,19.231,7.717,39.298,2.302c9.64-2.602,5.983-1.379,10.446,0.553
		c4.768,2.064,14.372,8.714,15.208,9.656c0.614,0.691-3.489,2.985-4.126,3.239c-11.931,0.471-22.317,6.274-21.863,7.209
		c0.614,1.262,6.569,0.427,8.051,0.427c4.927,0,2.392,1.279-0.207,3.711c-2.178,2.039-3.812,4.583-5.935,6.695
		c-3.086-6.109-11.455-8.583-7.844,0.906c1.262,3.316,4.531,4.297,1.716,7.701C539.158,274.469,527.708,297.677,527.534,298.059z
		 M542.29,380.07c9.8,9.212,22.923-22.883,4.923-10.878c-5.437,2.925-5.249,9.659-4.889,9.659
		c-0.804-0.001-2.574-10.85-1.503-11.942c2.726-2.784,2.541-2.415,6.071-1.909c11.444,1.638,6.923-8.967,4.742-11.626
		c-5.892-9.067-12.569-5.125-12.66-12.642c-0.161-13.29,0.733-11.61,1.244-18.829c0.831-11.723,2.02-7.786,12.487-8.051
		c-2.655,2.261-4.673,4.747-6.855,7.395c-5.108,6.202-0.142,4.533,1.975,5.822c20.815,12.664,22.652-2.227,24.888,12.082
		c1.529,9.782,7.712,19.121,11.3,22.943c0.401,0.832-1.223,10.181-1.506,12.161c-0.634,4.429-0.561,8.523-0.67,13.015
		c-9.97,1.031-18.933-14.998-21.605-16.228c0.699,12.356,13.394,18.68,22.401,23.77c-0.216,3.579,3.167,29.572,25.204,55.939
		c0.353,1.187,4.621,6.111,5.758,6.545c2.677,4.517,14.174,14.753,15.493,15.125c1.408,1.895,3.662,1.76-0.025,6.513
		c1.481-1.906-27.988,40.39-33.896,53.388c-4.839-1.265-8.372-6.064-12.852-8.29c-4.506-2.238-8.626-5.356-13.139-7.642
		c-5.336-2.704-0.251-1.961-9.308-62.009C561.93,447.397,541.263,392.225,542.29,380.07z M567.37,673.986
		c-11.97-0.367-21,1.133-27.399,19.658c-9.02,26.17-1.828,43.75,4.399,79.725c-29.787-15.699-29.802-29.179-40.238-82.197
		c-0.965-5.495,2.436-9.627,29.915-34.5c10.343-9.366,21.197-18.146,31.856-27.146c65.079,56.068,65.397,55.035,65.181,59.413
		c-4.325,37.291-7.121,61.891-37.247,82.668c-1.161-0.41-2.293-0.894-3.455-1.3c6.369-33.083,14.087-54.309,2.252-81.403
		C587.276,677.066,581.076,674.487,567.37,673.986z"/>
</g>
</svg>
